<svg xmlns="http://www.w3.org/2000/svg" viewBox="0 0 25.277 25.064"><title>Asset 10</title><g id="Layer_2" data-name="Layer 2"><g id="Layer_1-2" data-name="Layer 1"><path d="M9.637.35h6.05c.073.51.145,1.016.216,1.523.095.67.188,1.342.289,2.012a.215.215,0,0,0,.114.134,10.547,10.547,0,0,1,1.9,1.117.251.251,0,0,0,.2,0c1.076-.43,2.153-.86,3.224-1.3.163-.067.227-.039.311.109q1.4,2.451,2.808,4.892c.023.041.044.083.076.141-.294.231-.589.463-.884.693-.669.524-1.337,1.049-2.01,1.568a.254.254,0,0,0-.108.271,6.939,6.939,0,0,1,0,2.045.279.279,0,0,0,.129.3q1.4,1.086,2.79,2.179c.028.022.053.046.082.072l-2.993,5.21-1.157-.465c-.758-.306-1.517-.611-2.274-.921a.209.209,0,0,0-.237.029,8.85,8.85,0,0,1-1.839,1.083.21.21,0,0,0-.147.19c-.16,1.161-.328,2.322-.495,3.49H9.625c-.045-.311-.091-.624-.135-.937-.121-.857-.239-1.716-.367-2.572a.275.275,0,0,0-.147-.166,9.619,9.619,0,0,1-1.857-1.088.209.209,0,0,0-.237-.029q-1.618.659-3.241,1.311c-.059.024-.119.045-.192.072L.455,16.093,2,14.88c.451-.352.9-.707,1.355-1.055a.24.24,0,0,0,.1-.256,6.925,6.925,0,0,1,0-2.063.27.27,0,0,0-.123-.282q-1.413-1.1-2.819-2.2a.812.812,0,0,1-.061-.055c.279-.485.558-.968.836-1.453q1.034-1.8,2.065-3.6c.069-.123.129-.146.26-.092C4.7,4.262,5.789,4.7,6.873,5.141a.22.22,0,0,0,.252-.031A8.87,8.87,0,0,1,8.954,4.045.268.268,0,0,0,9.137,3.8c.152-1.115.311-2.229.468-3.343A.8.8,0,0,1,9.637.35Zm7.326,12.186a4.32,4.32,0,1,0-4.327,4.313A4.31,4.31,0,0,0,16.963,12.536Z" style="fill:none;stroke:#2597c8;stroke-miterlimit:10;stroke-width:0.699999988079071px"/></g></g></svg>