<svg xmlns="http://www.w3.org/2000/svg" viewBox="0 0 21.725 21.102"><title>Asset 9</title><g id="Layer_2" data-name="Layer 2"><g id="Layer_1-2" data-name="Layer 1"><path d="M10.857,21.1q-3.406,0-6.814,0A3.927,3.927,0,0,1,.088,17.943a3.657,3.657,0,0,1-.084-.8Q0,10.55,0,3.959A3.94,3.94,0,0,1,3.94.005C7.212,0,10.484,0,13.756,0Q15.727,0,17.7,0a3.954,3.954,0,0,1,4.015,3.553,3.175,3.175,0,0,1,.011.391q0,6.6,0,13.209A3.935,3.935,0,0,1,17.8,21.1C15.486,21.107,13.172,21.1,10.857,21.1ZM.734,7.9c0,.089-.009.15-.009.21q0,4.544,0,9.085a2.422,2.422,0,0,0,.019.391,3.2,3.2,0,0,0,3.232,2.784q6.892.012,13.785,0A3.181,3.181,0,0,0,21,17.105q0-4.466,0-8.929c0-.091-.008-.183-.012-.274Zm20.252-.715C20.992,7.114,21,7.055,21,7q0-1.58,0-3.159a2.2,2.2,0,0,0-.031-.389A3.214,3.214,0,0,0,17.676.731q-2.284,0-4.569,0Q8.552.73,4,.732A3.2,3.2,0,0,0,.725,4c0,.974,0,1.949,0,2.924,0,.084.008.169.013.265Z" style="fill:#2597c8"/><path d="M10.863,12.118H5.931c-.079,0-.181.029-.23-.01-.119-.094-.279-.21-.3-.335-.014-.1.139-.246.248-.336.061-.051.182-.039.277-.039h9.865c.044,0,.087,0,.13,0,.26.022.425.172.417.376s-.183.344-.441.344Z" style="fill:#2597c8"/><path d="M10.861,16.08h4.906c.1,0,.216-.031.281.015.116.082.267.209.273.323s-.134.258-.247.338c-.078.056-.218.033-.331.033q-4.879,0-9.759,0a2.467,2.467,0,0,1-.286-.015.321.321,0,0,1-.308-.354.329.329,0,0,1,.33-.336c.087-.006.174,0,.261,0Z" style="fill:#2597c8"/><path d="M5.118,3.76A.546.546,0,1,1,6.2,3.771a.548.548,0,0,1-.55.619C5.318,4.387,5.117,4.149,5.118,3.76Z" style="fill:#2597c8"/><path d="M16.606,3.769c0,.384-.206.622-.54.621a.551.551,0,0,1-.542-.627.546.546,0,1,1,1.082.006Z" style="fill:#2597c8"/></g></g></svg>