<svg xmlns="http://www.w3.org/2000/svg" viewBox="0 0 24.956 28.559"><title>Asset 11</title><g id="Layer_2" data-name="Layer 2"><g id="Layer_1-2" data-name="Layer 1"><path d="M12.482,18.929l1.389.928c-.067.133-.128.257-.19.381-.226.452-.449.905-.679,1.353a.276.276,0,0,0-.009.256c.269.665.551,1.326.8,2a7.487,7.487,0,0,1,.245,1.011c.1.485.2.972.316,1.477.006-.015.011-.031.017-.046.454-1.138.936-2.266,1.356-3.417a15.755,15.755,0,0,0,.779-3.4,16.937,16.937,0,0,0,.152-2.3.514.514,0,0,0-.05-.21c-.1-.213-.2-.429-.317-.63A1.113,1.113,0,0,1,16.2,15.7c.043.038.072.06.1.086.25.25.5.5.752.748a.44.44,0,0,0,.174.1c1.266.394,2.544.751,3.8,1.185a3.544,3.544,0,0,1,2.466,2.961c.2,1.246.367,2.5.545,3.748.175,1.223.348,2.446.523,3.683H.4c.065-.451.128-.894.191-1.337q.15-1.053.3-2.107c.1-.7.2-1.4.3-2.095.09-.633.169-1.268.278-1.9a3.566,3.566,0,0,1,2.473-2.956c1.248-.431,2.522-.788,3.783-1.181a.481.481,0,0,0,.186-.11c.266-.258.526-.522.788-.784a.744.744,0,0,1,.063-.048c-.015.213.043.407-.07.589-.046.074-.073.16-.12.232A1.889,1.889,0,0,0,8.3,17.719a21.544,21.544,0,0,0,.383,3.121,19.58,19.58,0,0,0,1.2,3.758c.227.532.446,1.067.669,1.6.016.039.034.078.067.152.061-.3.116-.569.169-.836.1-.482.174-.969.3-1.444a7.722,7.722,0,0,1,.34-.888c.179-.448.358-.9.541-1.343a.264.264,0,0,0-.009-.244c-.275-.538-.543-1.08-.814-1.621-.017-.035-.033-.071-.056-.119l1.39-.929-.868-.744L9.554,16.421a.946.946,0,0,1-.33-.753c0-.837,0-1.675,0-2.513a.446.446,0,0,0-.068-.227,5.647,5.647,0,0,1-.848-2.281.171.171,0,0,0-.04-.1A2.373,2.373,0,0,1,7.549,9.4a3.271,3.271,0,0,1-.185-1.376.872.872,0,0,1,.274-.642.166.166,0,0,0,.033-.128c-.071-.605-.152-1.21-.217-1.816a8.841,8.841,0,0,1-.066-1.04,1.843,1.843,0,0,1,.333-.964,5.84,5.84,0,0,1,.421-.581,1.45,1.45,0,0,0,.228-.4A2.975,2.975,0,0,1,9.793.923,4.936,4.936,0,0,1,11.649.392,6.276,6.276,0,0,1,14.1.581a5.489,5.489,0,0,1,2.4,1.374,3.715,3.715,0,0,1,1.069,2.106,4.281,4.281,0,0,1-.032,1.108c-.069.645-.149,1.289-.225,1.934,0,.043-.014.086-.021.129a.174.174,0,0,0,.065.18.8.8,0,0,1,.24.577,3.453,3.453,0,0,1-.629,2.282.672.672,0,0,1-.177.19.364.364,0,0,0-.155.295,5.48,5.48,0,0,1-.837,2.189.359.359,0,0,0-.057.191q-.006,1.257,0,2.513a1.02,1.02,0,0,1-.384.821q-1.407,1.194-2.8,2.4C12.527,18.885,12.509,18.9,12.482,18.929Z" style="fill:none;stroke:#2597c8;stroke-miterlimit:10;stroke-width:0.699999988079071px"/></g></g></svg>