<svg xmlns="http://www.w3.org/2000/svg" viewBox="0 0 22.092 22.207"><title>Asset 12</title><g id="Layer_2" data-name="Layer 2"><g id="Layer_1-2" data-name="Layer 1"><path d="M7.333,8.543a8.859,8.859,0,0,0,1.14,1.876,17.74,17.74,0,0,0,3.307,3.3,9.237,9.237,0,0,0,1.726,1.049.123.123,0,0,0,.165-.03q.744-.75,1.493-1.5a2.3,2.3,0,0,1,1.2-.672,2,2,0,0,1,1.841.55c.559.539,1.1,1.1,1.646,1.65.416.42.833.839,1.246,1.264a2.187,2.187,0,0,1,.6,1.121,2.072,2.072,0,0,1-.459,1.771c-.245.3-.536.566-.807.846-.3.31-.6.614-.9.928a3.533,3.533,0,0,1-2.408,1.147,7.845,7.845,0,0,1-3.2-.551A20.452,20.452,0,0,1,8.2,18.074a23.8,23.8,0,0,1-5.851-6.691A16.437,16.437,0,0,1,.61,7.3,7.086,7.086,0,0,1,.353,5.213,3.514,3.514,0,0,1,1.346,2.8c.56-.579,1.117-1.16,1.685-1.73A2.271,2.271,0,0,1,4.4.367a2.058,2.058,0,0,1,1.751.6Q7.586,2.373,8.992,3.809A2.124,2.124,0,0,1,9.65,5.532a2.015,2.015,0,0,1-.545,1.235c-.511.541-1.045,1.059-1.571,1.587C7.472,8.416,7.406,8.475,7.333,8.543Z" transform="translate(0 0)" style="fill:none;stroke:#2597c8;stroke-miterlimit:10;stroke-width:0.699999988079071px"/></g></g></svg>