<svg width="150" height="47" viewBox="0 0 150 47" fill="none" xmlns="http://www.w3.org/2000/svg">
<path d="M25.6867 38.0979C32.3176 36.1452 37.6609 30.8541 39.3347 23.7992C41.7811 13.28 35.0858 2.88665 24.3347 0.493047C13.5837 -1.90056 2.96137 4.65037 0.515021 15.1696C0.128755 16.8074 0 18.5081 0 20.0828V44.0819V44.0819C0.0643776 44.9638 0.708153 45.7826 1.60944 45.9716C1.99571 46.0346 2.31759 46.0346 2.63948 45.9086V45.9086L25.6867 38.0979Z" transform="translate(110.021 0.842163)" fill="white"/>
<path d="M15.0645 0V3.90536H9.6567V17.4481H5.34337V3.90536H0V0H15.0645Z" transform="translate(14.2275 10.6577)" fill="white"/>
<path fill-rule="evenodd" clip-rule="evenodd" d="M5.66504 14.7396H12.7466L13.7124 17.4481H18.3477L11.2017 0H7.146L0 17.4481H4.63525L5.66504 14.7396ZM10.043 7.68469L11.3306 11.0862H7.08154L8.36914 7.68469C8.69092 6.67688 9.20605 5.10217 9.20605 5.10217C9.20605 5.10217 9.65674 6.67688 10.043 7.68469Z" transform="translate(26.1372 10.5947)" fill="white"/>
<path fill-rule="evenodd" clip-rule="evenodd" d="M6.43799 11.7791L9.72119 17.4481H14.4849L10.5581 11.0232C12.6182 10.0784 13.7769 8.3147 13.7769 5.98401C13.7769 2.39355 11.1372 0 6.63086 0H0V17.4481H4.24902V11.7791H6.43799ZM7.21045 8.06274H4.24902V3.9054H7.21045C8.75537 3.9054 9.33496 5.03918 9.33496 5.98401C9.33496 6.92896 8.75537 8.06274 7.21045 8.06274Z" transform="translate(45.0645 10.6577)" fill="white"/>
<path d="M15 0V3.90536H9.59227V17.4481H5.34335V3.90536H0V0H15Z" transform="translate(59.4849 10.6577)" fill="white"/>
<path d="M15.7083 0V9.70041C15.7083 14.9285 12.5537 17.7631 7.85413 17.7631C3.09015 17.7631 0 14.9285 0 9.70041V0H4.24895V9.57443C4.24895 12.5349 5.47214 13.8577 7.85413 13.8577C10.1717 13.8577 11.4593 12.5349 11.4593 9.57443V0H15.7083Z" transform="translate(75.5791 10.6577)" fill="white"/>
<path d="M11.2018 1.07082L4.31332 11.968V5.22814L11.2018 1.07082C10.043 0.377938 8.56227 0 6.82406 0H0V17.4481H4.24894V11.968H6.75968C11.1374 11.968 13.7769 9.70041 13.7769 5.98402C13.8413 3.71639 12.8756 2.07866 11.2018 1.07082" transform="translate(92.4463 10.6577)" fill="white"/>
<path d="M7.98283 7.43278C11.7167 8.31464 13.6481 9.63742 13.6481 12.5349C13.6481 15.8104 11.073 17.7001 7.33906 17.7001C4.63519 17.7001 2.12446 16.7553 0 14.9286L1.86695 12.7869C3.54077 14.2357 5.21459 15.0545 7.40343 15.0545C9.33477 15.0545 10.5579 14.1727 10.5579 12.8499C10.5579 11.5901 9.84979 10.8972 6.56652 10.2043C2.83262 9.32247 0.708155 8.25165 0.708155 5.03917C0.708155 2.01567 3.21888 0 6.75966 0C9.33477 0 11.3949 0.755876 13.133 2.14165L11.4592 4.40928C9.84979 3.27546 8.30472 2.64557 6.69528 2.64557C4.8927 2.64557 3.79828 3.52742 3.79828 4.72423C3.79828 6.04701 4.63519 6.61392 7.98283 7.43278" transform="translate(114.077 10.5947)" fill="#231F20"/>
<path d="M9.14158 17.8261C3.60513 17.8261 0 13.9837 0 8.94453C0 4.09433 3.79826 0 9.0772 0C12.1673 0 14.0343 0.818866 15.8368 2.33062L13.8411 4.59825C12.4892 3.46443 11.1373 2.77155 8.88407 2.77155C5.6652 2.77155 3.15449 5.54309 3.15449 8.88154C3.15449 12.472 5.53645 15.0545 9.14158 15.0545C10.8154 15.0545 12.2961 14.5506 13.3905 13.7318V10.5193H8.88407V7.87371H16.4806V15.1175C14.7424 16.6293 12.2961 17.8261 9.14158 17.8261" transform="translate(129.013 10.4688)" fill="#231F20"/>
<path d="M8.88411 7.24381C6.69527 6.48793 4.95707 6.04701 4.95707 4.91319C4.95707 4.22031 5.66523 3.59041 6.95278 3.59041C8.11158 3.59041 9.33475 4.22031 9.91415 5.4801L14.0343 4.40928C13.0686 1.8267 10.4935 0 7.21029 0C3.34763 0 0.515021 2.4566 0.515021 5.16515C0.515021 8.25165 2.96137 9.38546 5.15021 10.1413C7.72531 11.0862 9.78539 11.4641 9.78539 12.8499C9.78539 13.6688 9.07724 14.4246 7.53218 14.4246C5.79398 14.4246 4.57081 13.2908 4.05579 12.094L0 13.1648C1.22317 16.1883 3.79828 18.078 7.40342 18.078C11.5236 18.078 14.3562 15.8104 14.3562 12.5979C14.3562 9.63742 11.588 8.18866 8.88411 7.24381" transform="translate(0 10.3428)" fill="white"/>
</svg>
