<svg width="125" height="48" viewBox="0 0 125 48" fill="none" xmlns="http://www.w3.org/2000/svg">
<path d="M21.4056 32.524C26.9313 30.857 31.3841 26.34 32.779 20.3173C34.8176 11.337 29.2382 2.46432 20.279 0.420912C11.3197 -1.6225 2.46781 3.97 0.429184 12.9503C0.107296 14.3484 0 15.8003 0 17.1446V37.6325C0.0536481 38.3853 0.590129 39.0844 1.3412 39.2457C1.66309 39.2995 1.93133 39.2995 2.19957 39.192L21.4056 32.524Z" transform="translate(91.6846 8.71387)" fill="#ED1A3B"/>
<path d="M12.5536 0V3.33399H8.04721V14.8954H4.45279V3.33399H0V0H12.5536Z" transform="translate(11.8564 17.0933)" fill="#231F20"/>
<path fill-rule="evenodd" clip-rule="evenodd" d="M3.86255 14.8955L4.72095 12.583H10.6223L11.427 14.8955H15.2898L9.33472 0H5.95483L0 14.8955H3.86255ZM8.36914 6.56006L9.44214 9.46387H5.90137L6.97437 6.56006C7.24268 5.69971 7.67163 4.35547 7.67163 4.35547C7.67163 4.35547 8.04736 5.69971 8.36914 6.56006Z" transform="translate(21.7812 17.0396)" fill="#231F20"/>
<path fill-rule="evenodd" clip-rule="evenodd" d="M5.36475 10.0557L8.10083 14.8955H12.0708L8.79834 9.41064C10.5151 8.604 11.4807 7.09814 11.4807 5.1084C11.4807 2.04346 9.28101 0 5.52563 0H0V14.8955H3.54077V10.0557H5.36475ZM6.00854 6.8833H3.54077V3.33398H6.00854C7.29614 3.33398 7.77905 4.30176 7.77905 5.1084C7.77905 5.91504 7.29614 6.8833 6.00854 6.8833Z" transform="translate(37.5537 17.0933)" fill="#231F20"/>
<path d="M12.5 0V3.33399H7.99356V14.8954H4.45279V3.33399H0V0H12.5Z" transform="translate(49.5713 17.0933)" fill="#231F20"/>
<path d="M13.0901 0V8.2812C13.0901 12.7444 10.4614 15.1643 6.54507 15.1643C2.57511 15.1643 0 12.7444 0 8.2812V0H3.54077V8.17365C3.54077 10.701 4.56009 11.8303 6.54507 11.8303C8.4764 11.8303 9.54936 10.701 9.54936 8.17365V0H13.0901Z" transform="translate(62.9824 17.0933)" fill="#231F20"/>
<path d="M9.33477 0.914157L3.59442 10.2171V4.46324L9.33477 0.914157C8.3691 0.322644 7.1352 0 5.6867 0H0V14.8954H3.54077V10.2171H5.63305C9.28112 10.2171 11.4807 8.28119 11.4807 5.10853C11.5343 3.17266 10.7296 1.77454 9.33477 0.914157Z" transform="translate(77.0391 17.0933)" fill="#231F20"/>
<path d="M6.65236 6.34533C9.76394 7.09817 11.3734 8.22742 11.3734 10.701C11.3734 13.4973 9.22746 15.1105 6.11588 15.1105C3.86266 15.1105 1.77038 14.3039 0 12.7444L1.55579 10.9161C2.95064 12.1529 4.34549 12.852 6.16952 12.852C7.77896 12.852 8.79828 12.0991 8.79828 10.9699C8.79828 9.89442 8.20815 9.3029 5.4721 8.71139C2.36051 7.95855 0.590128 7.04439 0.590128 4.30192C0.590128 1.72077 2.6824 0 5.63304 0C7.77896 0 9.4957 0.645288 10.9442 1.82832L9.54935 3.76418C8.20815 2.79625 6.9206 2.25851 5.57939 2.25851C4.07725 2.25851 3.16523 3.01134 3.16523 4.03305C3.16523 5.1623 3.86266 5.64627 6.65236 6.34533Z" transform="translate(95.0645 17.0396)" fill="white"/>
<path d="M7.61802 15.218C3.00429 15.218 0 11.9378 0 7.63591C0 3.49531 3.16523 0 7.56437 0C10.1395 0 11.6953 0.699062 13.1974 1.98964L11.5343 3.9255C10.4077 2.95757 9.28111 2.36606 7.40343 2.36606C4.72103 2.36606 2.62875 4.73211 2.62875 7.58213C2.62875 10.6473 4.61373 12.852 7.61802 12.852C9.01287 12.852 10.2468 12.4218 11.1588 11.7227V8.98026H7.40343V6.72175H13.7339V12.9058C12.2854 14.1963 10.2468 15.218 7.61802 15.218Z" transform="translate(107.511 16.9321)" fill="white"/>
<path d="M7.40343 6.18401C5.5794 5.53872 4.1309 5.1623 4.1309 4.19437C4.1309 3.60286 4.72103 3.06512 5.79399 3.06512C6.75966 3.06512 7.77897 3.60286 8.2618 4.67834L11.6953 3.76418C10.8906 1.55945 8.74463 0 6.00858 0C2.7897 0 0.429184 2.09719 0.429184 4.40947C0.429184 7.04439 2.46781 8.01232 4.29185 8.65761C6.43777 9.46422 8.15451 9.78686 8.15451 10.9699C8.15451 11.669 7.56438 12.3142 6.27682 12.3142C4.82833 12.3142 3.80901 11.3463 3.37983 10.3246L0 11.2388C1.01931 13.8199 3.16524 15.4331 6.16953 15.4331C9.603 15.4331 11.9635 13.4973 11.9635 10.7548C11.9635 8.22742 9.65665 6.99062 7.40343 6.18401Z" transform="translate(0 16.8247)" fill="#231F20"/>
</svg>
