<svg width="16" height="15" viewBox="0 0 16 15" fill="none" xmlns="http://www.w3.org/2000/svg">
<path d="M6.66667 13.3333C10.3486 13.3333 13.3333 10.3486 13.3333 6.66667C13.3333 2.98477 10.3486 0 6.66667 0C2.98477 0 0 2.98477 0 6.66667C0 10.3486 2.98477 13.3333 6.66667 13.3333Z" transform="translate(1.33398 1)" stroke="#E83F53" stroke-miterlimit="10" stroke-linecap="square"/>
<path d="M0 0V3.63636" transform="translate(8 4.63623)" stroke="#E83F53" stroke-miterlimit="10" stroke-linecap="square"/>
<path d="M0.606061 1.21212C0.940779 1.21212 1.21212 0.940779 1.21212 0.606061C1.21212 0.271343 0.940779 0 0.606061 0C0.271343 0 0 0.271343 0 0.606061C0 0.940779 0.271343 1.21212 0.606061 1.21212Z" transform="translate(7.39453 10.0908)" fill="#E83F53"/>
</svg>
