<?xml version="1.0" encoding="utf-8"?>
<!-- Generator: Adobe Illustrator 22.0.1, SVG Export Plug-In . SVG Version: 6.00 Build 0)  -->
<svg version="1.1" id="Layer_1" xmlns="http://www.w3.org/2000/svg" xmlns:xlink="http://www.w3.org/1999/xlink" x="0px" y="0px"
	 viewBox="0 0 48 48" style="enable-background:new 0 0 48 48;" xml:space="preserve">
<style type="text/css">
	.st0{fill:#404041;}
	.st1{fill:none;stroke:#FFFFFF;stroke-width:0.5;stroke-miterlimit:10;}
</style>
<circle class="st0" cx="24" cy="24" r="24"/>
<g>
	<circle class="st1" cx="24" cy="16.1" r="5.4"/>
	<path class="st1" d="M24.3,37.2L24.3,37.2c-3.6-0.1-6.9-1-9.8-2.9C14,34,13.8,33.6,13.8,33c0.2-2.9,1.1-5.1,2.7-6.9
		c1-1,2.1-1.7,3.4-1.9c0.5-0.1,1-0.1,1.5-0.1c0.5,0,1.1,0,1.6,0c1.2,0,2.5,0,3.8,0c2.3-0.1,4.1,0.9,5.5,3c1.1,1.5,1.7,3.3,1.9,5.4
		c0,0.4,0.1,0.7,0.1,1.1c0,0.3-0.2,0.7-0.5,0.9c-2,1.3-4.2,2.1-6.4,2.4c-0.7,0.1-1.4,0.2-2,0.2L24.3,37.2z"/>
</g>
</svg>
