<svg xmlns="http://www.w3.org/2000/svg" viewBox="0 0 72.307 72.307"><title>Asset 1</title><g id="Layer_2" data-name="Layer 2"><g id="Layer_1-2" data-name="Layer 1"><circle cx="36.153" cy="36.153" r="36.153" style="fill:#659bd2"/><path d="M29.894,44.824a3.781,3.781,0,0,1,.281-.371q10.5-10.5,21-21.005a.986.986,0,0,1,.987-.366.871.871,0,0,1,.541,1.355,2.052,2.052,0,0,1-.26.306Q41.535,35.652,30.627,46.558a.935.935,0,0,1-1.506,0q-4.636-4.633-9.271-9.27c-.421-.422-.5-.752-.287-1.159a.9.9,0,0,1,1.374-.3,2.6,2.6,0,0,1,.247.235q4.208,4.206,8.413,8.414C29.678,44.56,29.747,44.652,29.894,44.824Z" style="fill:#f5f9fc"/></g></g></svg>