<svg id="Layer_1" data-name="Layer 1" xmlns="http://www.w3.org/2000/svg" viewBox="0 0 1022.73 141.49"><defs><style>.cls-1,.cls-2{fill:#659bd1;}.cls-1{opacity:0.2;}.cls-2{opacity:0.5;}</style></defs><title>divider-2</title><path class="cls-1" d="M-.4.43c26.46,0,141-.3,152.7,0,58.82,1.76,117.61,6.6,175.71,16C412.9,30.26,492.35,66.83,577.29,82.87c88.34,16.68,179.38,21.28,268.47,7.87,62.55-9.42,125.07-28.24,176.57-64.69v84.3l-.58.28c-21.68,10.14-45.81,13.66-69.61,16.12-89.46,9.25-181.39,7.74-270.66-2.93-83.64-10-165.89-33.81-250.08-39C354.89,80,277.63,72,201.34,83.52,137,93.24,55.41,104.7-.4,141.81Z" transform="translate(0.4 -0.32)"/><path class="cls-2" d="M-.4,48.56c24,0,142-.19,153.87,0,58.82,1.12,117.6,4.21,175.71,10.21,84.89,8.78,164.34,32.1,249.28,42.33,88.33,10.64,179.37,13.56,268.47,5,62.08-6,124.13-17.83,175.4-40.73V119c-21.53,6.33-45.43,8.55-69,10.11-89.45,5.9-181.39,4.93-270.65-1.87-83.64-6.38-165.89-21.56-250.08-24.9-76.52-3-153.77-8.16-230.07-.8C137.73,107.79,55.44,115.16-.4,139.21Z" transform="translate(0.4 -0.32)"/></svg>