<?xml version="1.0" encoding="UTF-8"?>
<svg width="32px" height="20px" viewBox="0 0 32 20" version="1.1" xmlns="http://www.w3.org/2000/svg" xmlns:xlink="http://www.w3.org/1999/xlink">
    <!-- Generator: Sketch 48.1 (47250) - http://www.bohemiancoding.com/sketch -->
    <title>logo-icon</title>
    <desc>Created with Sketch.</desc>
    <defs></defs>
    <g id="Page-1" stroke="none" stroke-width="1" fill="none" fill-rule="evenodd">
        <g id="logo-icon" fill="#669BD1" fill-rule="nonzero">
            <path d="M20.97,11.91 C20.97,14.2 20.97,16.31 20.97,18.43 C20.97,19.28 20.75,19.61 19.85,19.59 C17.42,19.59 17.42,19.59 17.42,17.16 C17.42,11.86 17.42,6.56 17.42,1.26 C17.42,0.39 17.67,0.12 18.55,0.14 C20.97,0.19 23.39,0.14 25.81,0.14 C28.5780936,0.0156208318 31.0573847,1.84064556 31.7611331,4.52067369 C32.4648815,7.20070182 31.2020865,10.0083607 28.73,11.26 L27.84,11.75 L29.47,14.75 L31.4,18.35 C31.92,19.35 31.81,19.51 30.75,19.53 C27.99,19.53 27.99,19.53 26.75,17.08 C25.98,15.54 25.23,13.99 24.4,12.48 C24.166866,12.1488477 23.8025961,11.9339285 23.4,11.89 C22.5902439,11.8522156 21.7790245,11.8588923 20.97,11.91 Z M20.97,3.38 L20.97,7.66 C20.9192667,7.95785511 20.9192667,8.26214489 20.97,8.56 C21.0793093,8.80061985 21.2931829,8.97761871 21.55,9.04 C22.94,9.04 24.34,9.12 25.73,9.04 C27.2282856,8.93093422 28.393172,7.69215572 28.41,6.19 C28.4286927,4.76243508 27.3593028,3.5545008 25.94,3.4 C24.34,3.31 22.74,3.38 20.97,3.38 Z" id="Shape"></path>
            <path d="M0,0.01 C4.2,0.01 8.25,0.01 12.3,0.01 C13.11,0.01 13.53,0.61 13.53,1.59 C13.53,5.25 13.53,8.92 13.53,12.59 C13.53,14.65 13.53,16.7 13.53,18.76 C13.53,19.47 13.27,19.76 12.53,19.76 C11.897298,19.7200089 11.262702,19.7200089 10.63,19.76 C9.83,19.82 9.76,19.38 9.76,18.76 C9.76,14.0933333 9.76,9.42666667 9.76,4.76 L9.76,3.54 L1.87,3.54 C0.39,3.53 0,3.12 0,1.65 L0,0.01 Z" id="Shape"></path>
        </g>
    </g>
</svg>