<svg id="Layer_1" data-name="Layer 1" xmlns="http://www.w3.org/2000/svg" xmlns:xlink="http://www.w3.org/1999/xlink" viewBox="0 0 119.07 12.67"><defs><style>.cls-1{fill:#6699d0;}</style><symbol id="Travelwards_logo_3" data-name="Travelwards logo 3" viewBox="0 0 119.07 12.67"><path class="cls-1" d="M105.22,2.58A3.85,3.85,0,0,1,106,3,3.85,3.85,0,0,0,105.22,2.58Z"/><path class="cls-1" d="M106.48,9.25a3.46,3.46,0,0,1-1.71,1A3.46,3.46,0,0,0,106.48,9.25Z"/><path class="cls-1" d="M90.48,2.45c0,.53,0,1.06,0,1.6s0,1.06,0,1.6c0-.54,0-1.07,0-1.6S90.49,3,90.48,2.45Z"/><path class="cls-1" d="M17.29,5.26a1.71,1.71,0,0,0,.37-.56A1.71,1.71,0,0,1,17.29,5.26Z"/><path class="cls-1" d="M13.36,5.8h0Z"/><path class="cls-1" d="M80.56,4.41h0L78.83,8.29l1.73-3.87Z"/><path class="cls-1" d="M75.37.2h-1.5a.36.36,0,0,0-.39.31L72,6.51c-.07.28-.14.56-.22.84a.53.53,0,0,1-.06.1l-.08-.1a0,0,0,0,1,0,0L68.9.44C68.74,0,68.74,0,68.29,0,68,0,68,.05,67.88.3l-2.7,7a.86.86,0,0,1-.1.16A.65.65,0,0,1,65,7.28L63.23.5a.35.35,0,0,0-.39-.3h-.76c-.27,0-.55,0-.83,0A.29.29,0,0,0,61,.59L61,.7l1.83,6.5,1.44,5.12c.08.27.16.33.44.33h.12c.23,0,.3-.05.38-.26l2.13-5.45c.3-.77.6-1.55.91-2.32a.54.54,0,0,1,.09-.12l.09.12s0,0,0,0c1,2.54,2,5.07,3,7.61.15.38.16.38.56.38s.34-.06.41-.31c.51-1.8,1-3.59,1.52-5.39L75.72.67C75.81.35,75.7.2,75.37.2Z"/><path class="cls-1" d="M103.92.2h-4c-.33,0-.42.09-.42.43V12.09c0,.28.1.38.38.38H104a5.52,5.52,0,0,0,.81-.06,6,6,0,0,0,3.61-1.91A5.91,5.91,0,0,0,109.92,5,6.13,6.13,0,0,0,103.92.2Zm3.69,6.89a3.92,3.92,0,0,1-1.13,2.16,3.46,3.46,0,0,1-1.71,1,3,3,0,0,1-.67.1c-.76,0-1.53,0-2.29,0-.09,0-.12,0-.11-.12s0-.09,0-.13V2.32l.11,0c.69,0,1.38,0,2.07,0a4,4,0,0,1,1.35.27,3.92,3.92,0,0,1,2.38,3A4.66,4.66,0,0,1,107.61,7.09Z"/><path class="cls-1" d="M18.53,6.92A3.56,3.56,0,0,0,20,3.15,3.76,3.76,0,0,0,16.24.2C14.6.19,13,.2,11.33.2a.36.36,0,0,0-.43.41q0,5.73,0,11.46v.09a.3.3,0,0,0,.31.31h1.63a.33.33,0,0,0,.32-.31V7.82c0-.11,0-.16.15-.16H15a.17.17,0,0,1,.18.11l.58,1.17c.56,1.11,1.12,2.21,1.67,3.32.06.12.13.21.27.21h1.92a.28.28,0,0,0,.29-.31.67.67,0,0,0-.07-.24L18,8.45l-.5-.93.14-.07A9,9,0,0,0,18.53,6.92ZM17.29,5.26a1.67,1.67,0,0,1-.55.39,1.73,1.73,0,0,1-.32.11,1.84,1.84,0,0,1-.41,0H13.2V2.3h2.85A1.74,1.74,0,0,1,17.77,3.7a1.63,1.63,0,0,1-.11,1A1.71,1.71,0,0,1,17.29,5.26Z"/><path class="cls-1" d="M97.25,3A3.78,3.78,0,0,0,93.77.21c-.56,0-1.12,0-1.68,0H88.6c-.27,0-.39.1-.39.36V12.12c0,.24.12.35.36.35h1.49c.3,0,.41-.11.41-.41V7.82c0-.12,0-.16.16-.16h1.65a.21.21,0,0,1,.22.13c.26.54.53,1.07.8,1.6l1.44,2.87a.31.31,0,0,0,.28.21h1.9a.28.28,0,0,0,.3-.32.51.51,0,0,0-.07-.23l-2-3.71-.37-.69.63-.32A3.69,3.69,0,0,0,97.25,3Zm-3,2.49a1.78,1.78,0,0,1-1,.29h-2.7c-.13,0-.16,0-.16-.15,0-.54,0-1.07,0-1.6s0-1.07,0-1.6c0-.13,0-.16.17-.16h2.72a1.76,1.76,0,0,1,1.74,1.83A1.81,1.81,0,0,1,94.3,5.51Z"/><path class="cls-1" d="M46.41,2.29h4.87c.35,0,.45-.1.45-.45s0-.82,0-1.23S51.61.2,51.33.2h-7c-.29,0-.4.11-.4.4V12.08c0,.28.11.39.39.39h7c.28,0,.4-.11.4-.4s0-.85,0-1.27-.12-.42-.41-.42h-5c-.13,0-.17,0-.17-.17V7.5c0-.21,0-.21.21-.21h4.06c.3,0,.4-.1.41-.4V5.58c0-.28-.12-.39-.41-.39h-4.1c-.13,0-.17,0-.17-.18V2.51C46.19,2.29,46.19,2.29,46.41,2.29Z"/><path class="cls-1" d="M32.73,12q-2.14-4.67-4.27-9.33L27.38.28A.39.39,0,0,0,27.16,0a.45.45,0,0,0-.61.27q-1.61,3.47-3.2,6.93c-.73,1.56-1.45,3.13-2.18,4.7-.14.3-.06.57.34.55s.91,0,1.37,0a.58.58,0,0,0,.59-.39c.22-.49.47-1,.66-1.48a.53.53,0,0,1,.6-.39c1.57,0,3.14,0,4.71,0a.17.17,0,0,1,.19.12c.06.15.13.29.19.44l.63,1.36a.5.5,0,0,0,.51.33h1.51a.3.3,0,0,0,.29-.44ZM25.17,8.29C25.75,7,26.32,5.7,26.9,4.41H27c.59,1.28,1.17,2.57,1.77,3.88Z"/><path class="cls-1" d="M86.36,11.91l-4-8.8L81,.28a.48.48,0,0,0-.17-.22.46.46,0,0,0-.65.22C79,2.87,77.83,5.45,76.63,8c-.6,1.32-1.21,2.64-1.82,4-.13.29,0,.49.31.49h1.43a.57.57,0,0,0,.57-.37l.78-1.72a.21.21,0,0,1,.24-.16h5a.18.18,0,0,1,.19.12c.11.25.22.5.34.75s.32.71.49,1.07a.48.48,0,0,0,.49.31h1.51a.3.3,0,0,0,.3-.44ZM78.83,8.29l1.73-3.87h0C81.2,5.69,81.78,7,82.38,8.29Z"/><path class="cls-1" d="M118.41,7.17a4.67,4.67,0,0,0-1.64-1.32c-.59-.3-1.21-.55-1.81-.83a4.19,4.19,0,0,1-1.15-.72,1.25,1.25,0,0,1,.51-2.21,2,2,0,0,1,1.16,0A6.75,6.75,0,0,1,117.3,3a.39.39,0,0,0,.45,0,.86.86,0,0,0,.19-.19l.64-1a.43.43,0,0,0-.12-.63,6.14,6.14,0,0,0-3-1.13,4.71,4.71,0,0,0-2.61.47,3.28,3.28,0,0,0-1.16,4.79,4.61,4.61,0,0,0,1.74,1.42c.51.26,1.05.48,1.57.72a4.07,4.07,0,0,1,1.18.79,1.34,1.34,0,0,1,.1,1.91,1.63,1.63,0,0,1-1.21.51,3.07,3.07,0,0,1-1.23-.28,8,8,0,0,1-1.46-.8.39.39,0,0,0-.62.14c-.13.21-.25.43-.37.64s-.18.3-.26.45a.31.31,0,0,0,.06.44,2.55,2.55,0,0,0,.3.26,5.71,5.71,0,0,0,3.36,1.15,5.43,5.43,0,0,0,1.84-.26A3.45,3.45,0,0,0,119.07,9,3.22,3.22,0,0,0,118.41,7.17Z"/><path class="cls-1" d="M41.89.2H40.25a.39.39,0,0,0-.41.26Q38.43,3.64,37,6.8c-.15.35-.3.69-.46,1,0,0-.08.1-.1.09s-.09-.06-.13-.1a.11.11,0,0,1,0-.06L33,.46A.37.37,0,0,0,32.64.2H31.8c-.28,0-.57,0-.86,0s-.42.2-.3.48l0,0,4.05,8.82c.44.95.88,1.9,1.31,2.85a.37.37,0,0,0,.23.24.45.45,0,0,0,.61-.29Q39.55,6.53,42.22.71C42.37.39,42.25.2,41.89.2Z"/><path class="cls-1" d="M8.5.77A.85.85,0,0,0,7.6.12H.12C0,.11,0,.15,0,.24V1.61a.67.67,0,0,0,.29.56,1.06,1.06,0,0,0,.69.2H6.15v9.71a.71.71,0,0,0,0,.15c0,.2.1.26.29.26H8.17c.24,0,.35-.11.35-.34V1A.75.75,0,0,0,8.5.77Z"/><path class="cls-1" d="M60.63,10.38H56.22V.64c0-.34-.11-.44-.44-.44h-1.1c-.14,0-.28,0-.42,0a.3.3,0,0,0-.3.3,1.27,1.27,0,0,0,0,.2V12.12c0,.25.13.35.37.35h6.35A.32.32,0,0,0,61,12.1V10.79C61,10.5,60.92,10.38,60.63,10.38Z"/><path class="cls-1" d="M101.69,2.32l.11,0-.11,0v0Z"/><path class="cls-1" d="M106,3A3.84,3.84,0,0,1,107.6,5.6a4.66,4.66,0,0,1,0,1.49,4.66,4.66,0,0,0,0-1.49A3.84,3.84,0,0,0,106,3Z"/><path class="cls-1" d="M13.36,5.8Z"/><path class="cls-1" d="M16,5.8a1.84,1.84,0,0,0,.41,0,1.73,1.73,0,0,0,.32-.11,1.73,1.73,0,0,1-.32.11A1.84,1.84,0,0,1,16,5.8Z"/><path class="cls-1" d="M90.64,5.8h2.7a1.78,1.78,0,0,0,1-.29,1.78,1.78,0,0,1-1,.29Z"/><path class="cls-1" d="M80.56,4.41h0C81.2,5.69,81.78,7,82.38,8.29c-.6-1.31-1.18-2.6-1.77-3.88Z"/></symbol></defs><title>logo</title><use width="119.07" height="12.67" transform="translate(0 0)" xlink:href="#Travelwards_logo_3"/></svg>