<svg id="Layer_1" data-name="Layer 1" xmlns="http://www.w3.org/2000/svg" viewBox="0 0 31.97 19.73"><defs><style>.cls-1{fill:#fff;}</style></defs><title>logo-icon</title><path class="cls-1" d="M20.68,11.72c0,2.29,0,4.4,0,6.52,0,.85-.22,1.18-1.12,1.16-2.43,0-2.43,0-2.43-2.43,0-5.3,0-10.6,0-15.9,0-.87.25-1.14,1.13-1.12,2.42.05,4.84,0,7.26,0a5.88,5.88,0,0,1,2.92,11.12l-.89.49,1.63,3,1.93,3.6c.52,1,.41,1.16-.65,1.18-2.76,0-2.76,0-4-2.45-.77-1.54-1.52-3.09-2.35-4.6a1.41,1.41,0,0,0-1-.59A22.16,22.16,0,0,0,20.68,11.72Zm0-8.53V7.47a2.68,2.68,0,0,0,0,.9.86.86,0,0,0,.58.48c1.39,0,2.79.08,4.18,0A2.89,2.89,0,0,0,28.12,6a2.77,2.77,0,0,0-2.47-2.79C24.05,3.12,22.45,3.19,20.68,3.19Z" transform="translate(0.29 0.19)"/><path class="cls-1" d="M-.29-.18c4.2,0,8.25,0,12.3,0,.81,0,1.23.6,1.23,1.58,0,3.66,0,7.33,0,11,0,2.06,0,4.11,0,6.17,0,.71-.26,1-1,1a15.06,15.06,0,0,0-1.9,0c-.8.06-.87-.38-.87-1q0-7,0-14V3.35H1.58C.1,3.34-.29,2.93-.29,1.46Z" transform="translate(0.29 0.19)"/></svg>