<svg xmlns="http://www.w3.org/2000/svg" viewBox="0 0 131.644 52.252"><title>hB8tgE.tif</title><g id="Layer_2" data-name="Layer 2"><g id="Layer_1-2" data-name="Layer 1"><g id="hB8tgE.tif"><path d="M15.607,31.783c.2-.893.081-1.211-.94-1.194-3.735.06-7.472.024-11.208.024-2.6,0-2.6,0-3.35,2.416-.011.036-.071.057-.109.085v.841c1.494,0,2.99.043,4.482-.017.8-.032.923.21.768.958C4.277,39.6,3.366,44.311,2.4,49.014c-.6,2.9-.621,2.837,2.311,2.921,1.1.031,1.518-.27,1.719-1.368.834-4.537,1.753-9.059,2.67-13.582.615-3.034.637-3.03,3.8-3.03C15.149,33.955,15.115,33.947,15.607,31.783Z" style="fill:#343434"/><path d="M62.031,23.287C62.02,16.1,62.049,8.921,62,1.739,61.989.568,62.334.245,63.492.255c6.062.054,12.126.024,18.189.024L81.661,0H61.737q.02,11.843.04,23.685A3.491,3.491,0,0,0,61.8,24.8c.179.5.382.126.545-.078C61.844,24.329,62.032,23.774,62.031,23.287Z" style="fill:#f37a62"/><path d="M131.576,18.484c.029-6.161.028-12.323.036-18.484H111.687V.28c6.079,0,12.158.026,18.237-.023,1.1-.008,1.44.288,1.43,1.413-.052,6.079-.024,12.158-.023,18.238C131.842,19.511,131.574,18.955,131.576,18.484Z" style="fill:#8fc27e"/><path d="M106.606.283l.03-.283H86.712l.043.284Z" style="fill:#f8c32e"/><path d="M104.747.726q-8.067.016-16.135,0A2.43,2.43,0,0,1,86.755.284V25.209c1.812-1.583,3.457-2.958,5.025-4.416a3,3,0,0,1,2.263-.824c3.833.038,7.667.01,11.5.023.66,0,1.142.014,1.134-.918-.053-6.264-.054-12.528-.072-18.791A2.476,2.476,0,0,1,104.747.726Z" style="fill:#f7bf1a"/><path d="M88.612.725q8.067.019,16.135,0a2.476,2.476,0,0,0,1.859-.443H86.755A2.43,2.43,0,0,0,88.612.725Z" style="fill:#f7bf1a"/><path d="M130.889,17.766c-.013-5.049,0-10.1-.01-15.146,0-1.809-.08-1.885-1.9-1.888-5.048-.009-10.1,0-15.146-.008A3,3,0,0,1,111.686.28V25.156c1.83-1.594,3.458-2.972,5.035-4.4a2.911,2.911,0,0,1,2.137-.791c4.157.019,8.315-.029,12.472-.052A2.948,2.948,0,0,1,130.889,17.766Z" style="fill:#88bf77"/><path d="M131.353,1.67c.01-1.125-.333-1.421-1.43-1.413-6.079.049-12.158.023-18.237.023a3,3,0,0,0,2.143.444c5.049.011,10.1,0,15.146.008,1.824,0,1.9.079,1.9,1.888.009,5.048,0,10.1.01,15.146a2.948,2.948,0,0,0,.441,2.142C131.329,13.828,131.3,7.749,131.353,1.67Z" style="fill:#88bf77"/><path d="M80.641,19.993c.7,0,1.124-.063,1.117-.955C81.706,12.785,81.7,6.531,81.681.279a3.051,3.051,0,0,1-2.143.444c-4.951.01-9.9,0-14.853.006-2.214,0-2.219.007-2.219,2.281q0,9.878,0,19.757a13.55,13.55,0,0,1-.127,1.952c1.417-1.211,2.89-2.364,4.231-3.654a3.873,3.873,0,0,1,3-1.1C73.266,20.023,76.954,19.973,80.641,19.993Z" style="fill:#f2725b"/><path d="M62.466,3.01c0-2.274,0-2.279,2.219-2.281,4.951,0,9.9,0,14.853-.006A3.051,3.051,0,0,0,81.681.279c-6.063,0-12.127.03-18.189-.024C62.334.245,61.989.568,62,1.739c.051,7.182.022,14.365.033,21.548,0,.487-.187,1.042.312,1.432a13.55,13.55,0,0,0,.127-1.952Q62.457,12.888,62.466,3.01Z" style="fill:#f2725b"/><path d="M36.808,36.01c-1.159-.034-1.5.414-1.685,1.432-.534,2.982-1.144,5.952-1.725,8.926A2.9,2.9,0,0,1,30.092,48.8c-1.132-.21-1.408-1-1.014-3,.569-2.882,1.164-5.759,1.711-8.644.077-.4.485-1.1-.47-1.105-1.027-.011-2.055,0-3.082,0-.392,0-.553.2-.624.588-.683,3.712-1.741,7.368-2.036,11.137-.255,3.265,2.226,5.107,5.417,4.259a7.876,7.876,0,0,0,2.927-1.723c-.328,1.405.189,1.763,1.247,1.6a3.95,3.95,0,0,1,1.118,0c.951.13,1.359-.155,1.547-1.207.706-3.945,1.547-7.867,2.351-11.794C39.775,36.028,39.784,36.1,36.808,36.01Z" style="fill:#343434"/><path d="M110.531,36.018c-.907,0-1.2.32-1.352,1.146-.578,3.117-1.2,6.227-1.837,9.334a2.862,2.862,0,0,1-3.257,2.3c-1.117-.2-1.427-1.054-1.046-3.012.427-2.2.9-4.386,1.325-6.583.636-3.268.627-3.243-2.674-3.182-.757.014-1.07.25-1.2.986-.38,2.159-.819,4.308-1.237,6.46a21.211,21.211,0,0,0-.713,4.694c.085,2.66,1.656,4.1,4.3,4.029a6.805,6.805,0,0,0,4.094-1.816c-.519,1.428.139,1.655,1.2,1.534a4.032,4.032,0,0,1,1.119,0c1.075.182,1.411-.312,1.594-1.326.7-3.855,1.49-7.692,2.254-11.535C113.719,35.985,113.723,36.028,110.531,36.018Z" style="fill:#343434"/><path d="M81.4,30.594a2.184,2.184,0,0,0-2.336,1.246c-1.62,2.71-3.367,5.345-5.2,8.224-.518-2.164-.98-4.09-1.44-6.017-.856-3.592-.855-3.571-4.521-3.452-.786.025-.945.185-.7.962.7,2.22,1.213,4.5,1.99,6.7,1.287,3.626,2.023,7.241.671,11.011-.125.347-.113.746-.248,1.089-.5,1.264-.118,1.636,1.242,1.583,2.725-.1,2.827-.015,3.222-2.7a18.624,18.624,0,0,1,3.722-8.87c2.348-3.062,4.418-6.337,6.772-9.756C83.341,30.613,82.364,30.683,81.4,30.594Z" style="fill:#343434"/><path d="M93.013,36.043a7.244,7.244,0,0,0-7.856,2.365,11.116,11.116,0,0,0-2.326,9.472,5.242,5.242,0,0,0,4.463,4.267A7.715,7.715,0,0,0,95.4,48.1a12.715,12.715,0,0,0,1.5-6.055C96.878,39.021,95.415,36.655,93.013,36.043ZM91.705,46.628c-.756,1.723-1.99,2.5-3.31,2.18-1.133-.276-1.567-1.206-1.5-3.225a10.108,10.108,0,0,1,1.264-4.945,2.54,2.54,0,0,1,2.907-1.41c1.332.308,1.5,1.417,1.543,2.5A10.934,10.934,0,0,1,91.705,46.628Z" style="fill:#343434"/><path d="M52.024,37.05c-2.916-2.5-8.65-1.309-10.336,2.145-1.207,2.472-.483,4.551,2.037,5.611,1.026.43,2.144.639,3.194,1.021.712.258,1.431.651,1.319,1.578a1.825,1.825,0,0,1-1.613,1.7c-1.022.146-2.438.277-2.6-.953-.217-1.648-1.186-1.329-2.131-1.291-.672.027-1.627-.392-1.958.247a2.755,2.755,0,0,0,.422,2.655,4.855,4.855,0,0,0,1.2,1.354c2.74,2.1,8.205,1.161,10.077-1.724,1.717-2.644.941-5.212-1.975-6.351-1.039-.406-2.152-.617-3.215-.965-.718-.234-1.233-.672-1.08-1.547a2.03,2.03,0,0,1,1.8-1.709c.74-.145,1.713.042,1.75.747.091,1.748,1.241,1.331,2.407,1.377.514-.333,1.594.534,1.955-.414a2.939,2.939,0,0,0-.762-2.984A4.819,4.819,0,0,0,52.024,37.05Z" style="fill:#343434"/><path d="M63.366,36.079c-.81-.02-1.268-.088-.909-1.079.22-.606.238-1.283.4-1.916.175-.7-.065-.849-.757-.875-3.261-.128-3.264-.153-3.971,3.013-.08.357-.046.9-.552.79-1.972-.423-1.845,1.048-2.149,2.22-.186.715,0,.98.7.883,1.054-.145,1.225.23,1.006,1.247a81.136,81.136,0,0,0-1.506,8.253c-.265,2.409,1.222,3.685,3.887,3.556,2.883-.14,2.654-.019,2.745-3.343,0-.04-.043-.082-.066-.122-2.3.172-2.47-.041-1.987-2.377.387-1.874.863-3.737,1.1-5.63.163-1.3.646-1.654,1.94-1.624,1.762.04,1.109-1.633,1.324-2.524S63.782,36.089,63.366,36.079Z" style="fill:#343434"/><path d="M23.864,35.738c-1.469,0-2.486.872-3.546,1.973.57-1.446.034-1.833-1.227-1.676a5.378,5.378,0,0,1-1.4,0c-.972-.136-1.253.331-1.417,1.221-.719,3.9-1.506,7.789-2.287,11.678-.6,3-.614,2.958,2.465,3,.918.012,1.3-.237,1.47-1.161.518-2.892,1.123-5.77,1.7-8.653A2.382,2.382,0,0,1,22.335,39.9c1.234.1,1.8-.3,1.994-1.467a5.175,5.175,0,0,1,.434-1.472C25.3,35.9,24.644,35.74,23.864,35.738Z" style="fill:#343434"/><path d="M130.047,30.583a1.2,1.2,0,0,0-1.118.835c-.666,1.372-1.366,2.726-2.213,4.405-.155-1.588-.246-2.748-.389-3.9-.07-.568.232-1.37-.9-1.332-.937.031-1.656-.047-1.81,1.262a50.134,50.134,0,0,1-1.129,5.763c-.213.887.065,1.023.858,1.03.716.007.986-.26,1.088-.931.138-.915.361-1.817.547-2.725a21.66,21.66,0,0,1,.542,2.753c.057.341.025.784.534.869a.886.886,0,0,0,1-.584c.4-.789.813-1.572,1.22-2.358.046-.274.282-.691.389-.614.365.265.166.613-.087.9a5.78,5.78,0,0,0-.243,1.371c.026.435-.679,1.178.382,1.287.707.073,1.346.124,1.5-.933a49.027,49.027,0,0,1,1.125-5.623C131.7,30.711,131.233,30.5,130.047,30.583Z" style="fill:#353434"/><path d="M122.938,31.114c.128-.648-.395-.492-.722-.5-1.351-.015-2.7.015-4.052-.014-.792-.017-.7.6-.817,1.053-.189.717.365.633.752.587.862-.1.735.377.622.922-.359,1.728-.7,3.46-1.059,5.259,2.087.225,2.087.225,2.452-1.627q.3-1.506.595-3.01c.166-.85.176-1.773,1.524-1.563C123.009,32.346,122.848,31.567,122.938,31.114Z" style="fill:#353535"/><path d="M128.567,35.513c-.1-.081-.19.1-.291.155l.3.284C128.631,35.8,128.688,35.615,128.567,35.513Z" style="fill:#9d9999"/><path d="M128.665,35.054c-.107-.077-.343.34-.389.614.1-.054.194-.236.291-.155.121.1.064.288.011.439C128.831,35.667,129.03,35.319,128.665,35.054Z" style="fill:#9d9999"/></g></g></g></svg>