<svg xmlns="http://www.w3.org/2000/svg" viewBox="0 0 85.927 85.011"><title>Asset 1</title><g id="Layer_2" data-name="Layer 2"><g id="Layer_1-2" data-name="Layer 1"><path d="M74.357,4.118c-5.758,0-13.964-.091-21.4-.091-2.853,0-3.878-.2-3.878,1.631q0,13.167,0,26.334v.927H1.993C.5,32.92,0,33.4,0,34.838q0,24.3,0,48.61c0,1.894,1.14,1.536,4.251,1.536,28.4,0,41.526-.183,73.754-.183,3.965,0,5.259.753,5.259-1.4q0-38.882,0-77.762C83.266,3.89,81.012,4.118,74.357,4.118Z" style="fill:#9edbed;opacity:0.9"/><path d="M51.742,29.12v-.928q0-13.166,0-26.332C51.742.543,52.29,0,53.629,0H84.041c1.41,0,1.885.467,1.885,1.852q0,39.176,0,78.352a1.935,1.935,0,0,1-1.935,1.935q-39.229,0-78.46,0c-1.33,0-1.9-.574-1.9-1.887,0-16.326,0-33.012,0-49.214,0-1.436.49-1.918,1.954-1.918H51.742Zm1.266,50.645V32.919H7.428V79.765Zm6.33-1.266v-.371q0-8.952,0-17.9c0-1.863.942-2.129,3.753-1.7a45.61,45.61,0,0,0,13.372-.074c2.292-.328,3.132.079,3.132,1.8V78.5h3.8V2.533H55.54V78.5Zm17.726,0V60.773H70.733V78.5Zm-8.863,0V60.773H61.87V78.5Z" style="fill:#404041"/><path d="M29.755,63.051q-6.855,0-13.711,0c-1.06,0-1.607-.414-1.685-1.247-.1-1.069.459-1.66,1.611-1.662q7.86-.008,15.72,0,5.922,0,11.842,0a1.419,1.419,0,0,1,1.467.82,1.27,1.27,0,0,1-.193,1.54,2.377,2.377,0,0,1-1.408.531C38.85,63.066,34.3,63.05,29.755,63.051Z" style="fill:#404041"/><path d="M29.752,73.434q-6.891,0-13.781,0c-.995,0-1.536-.431-1.612-1.243a1.388,1.388,0,0,1,1.407-1.665c.092-.007.184,0,.277,0q13.677,0,27.354.02a2.344,2.344,0,0,1,1.367.484,1.277,1.277,0,0,1,.261,1.53,1.31,1.31,0,0,1-1.284.874c-.231.008-.462,0-.693,0Q36.4,73.436,29.752,73.434Z" style="fill:#404041"/><path d="M29.723,52.3q-6.822,0-13.643,0c-1.233,0-1.8-.555-1.723-1.635a1.31,1.31,0,0,1,1.23-1.264c.229-.023.461-.015.692-.015H43.218c.162,0,.323,0,.485.005a1.35,1.35,0,0,1,1.427,1.3,1.38,1.38,0,0,1-1.214,1.572,4.348,4.348,0,0,1-.758.039Q36.441,52.3,29.723,52.3Z" style="fill:#404041"/><path d="M29.757,39.25q6.857,0,13.713,0c.987,0,1.519.383,1.647,1.146a1.482,1.482,0,0,1-1.111,1.692,3.838,3.838,0,0,1-.822.079q-13.436.006-26.871,0a4.172,4.172,0,0,1-.69-.034,1.349,1.349,0,0,1-1.267-1.584,1.321,1.321,0,0,1,1.481-1.3c4.178-.011,8.357-.006,12.535-.007Z" style="fill:#404041"/><path d="M70.78,12.748a1.45,1.45,0,0,1-1.427,1.473,1.469,1.469,0,1,1-.006-2.937A1.445,1.445,0,0,1,70.78,12.748Z" style="fill:#404041"/><path d="M70.78,34.769A1.4,1.4,0,0,1,69.33,36.2a1.45,1.45,0,0,1-1.465-1.433,1.507,1.507,0,0,1,1.505-1.488A1.471,1.471,0,0,1,70.78,34.769Z" style="fill:#404041"/><path d="M70.78,27.443a1.408,1.408,0,0,1-1.458,1.423,1.455,1.455,0,0,1-1.457-1.444,1.51,1.51,0,0,1,1.512-1.481A1.469,1.469,0,0,1,70.78,27.443Z" style="fill:#404041"/><path d="M70.78,20.053a1.422,1.422,0,0,1-1.4,1.487,1.467,1.467,0,0,1-1.515-1.462,1.513,1.513,0,0,1,1.455-1.47A1.464,1.464,0,0,1,70.78,20.053Z" style="fill:#404041"/><path d="M70.78,42.066a1.4,1.4,0,0,1-1.413,1.463,1.454,1.454,0,0,1-1.5-1.4,1.505,1.505,0,0,1,1.468-1.523A1.464,1.464,0,0,1,70.78,42.066Z" style="fill:#404041"/><path d="M60.565,50.862a1.436,1.436,0,0,1-1.482-1.4,1.47,1.47,0,0,1,1.386-1.507,1.558,1.558,0,0,1,1.548,1.452A1.51,1.51,0,0,1,60.565,50.862Z" style="fill:#404041"/><path d="M60.543,43.524a1.423,1.423,0,0,1-1.458-1.413,1.49,1.49,0,0,1,1.41-1.489A1.556,1.556,0,0,1,62.017,42.1,1.511,1.511,0,0,1,60.543,43.524Z" style="fill:#404041"/><path d="M78.145,43.524a1.418,1.418,0,0,1-1.458-1.411,1.485,1.485,0,0,1,1.406-1.491A1.554,1.554,0,0,1,79.617,42.1,1.513,1.513,0,0,1,78.145,43.524Z" style="fill:#404041"/><path d="M69.366,50.865a1.457,1.457,0,0,1-1.5-1.4,1.49,1.49,0,0,1,1.468-1.517,1.451,1.451,0,0,1,1.448,1.45A1.41,1.41,0,0,1,69.366,50.865Z" style="fill:#404041"/><path d="M78.1,50.862A1.437,1.437,0,0,1,76.684,49.4a1.46,1.46,0,0,1,1.449-1.442,1.546,1.546,0,0,1,1.483,1.513A1.512,1.512,0,0,1,78.1,50.862Z" style="fill:#404041"/><path d="M78.1,36.187a1.409,1.409,0,0,1-1.416-1.447,1.5,1.5,0,0,1,1.456-1.451,1.559,1.559,0,0,1,1.474,1.449A1.507,1.507,0,0,1,78.1,36.187Z" style="fill:#404041"/><path d="M60.525,36.188a1.417,1.417,0,0,1-1.44-1.425A1.5,1.5,0,0,1,60.52,33.29a1.554,1.554,0,0,1,1.5,1.495A1.511,1.511,0,0,1,60.525,36.188Z" style="fill:#404041"/><path d="M78.135,28.854a1.415,1.415,0,0,1-1.447-1.417A1.476,1.476,0,0,1,78.1,25.958a1.551,1.551,0,0,1,1.517,1.48A1.511,1.511,0,0,1,78.135,28.854Z" style="fill:#404041"/><path d="M78.142,21.524a1.431,1.431,0,0,1-1.458-1.417,1.446,1.446,0,0,1,1.406-1.478A1.543,1.543,0,0,1,79.617,20.1,1.516,1.516,0,0,1,78.142,21.524Z" style="fill:#404041"/><path d="M60.546,28.855a1.429,1.429,0,0,1-1.464-1.406,1.5,1.5,0,0,1,1.48-1.493,1.561,1.561,0,0,1,1.455,1.471A1.516,1.516,0,0,1,60.546,28.855Z" style="fill:#404041"/><path d="M60.532,21.523a1.433,1.433,0,0,1-1.45-1.423,1.473,1.473,0,0,1,1.425-1.468,1.534,1.534,0,0,1,1.51,1.476A1.517,1.517,0,0,1,60.532,21.523Z" style="fill:#404041"/><path d="M76.69,12.711a1.429,1.429,0,0,1,1.468-1.4,1.512,1.512,0,0,1,1.457,1.519A1.528,1.528,0,0,1,78.078,14.2,1.431,1.431,0,0,1,76.69,12.711Z" style="fill:#404041"/><path d="M60.529,11.309A1.524,1.524,0,0,1,62.017,12.8a1.534,1.534,0,0,1-1.511,1.4,1.445,1.445,0,0,1,.023-2.89Z" style="fill:#404041"/></g></g></svg>