<svg xmlns="http://www.w3.org/2000/svg" viewBox="0 0 19.525 25"><title>Asset 5</title><g id="Layer_2" data-name="Layer 2"><g id="Layer_1-2" data-name="Layer 1"><circle cx="9.463" cy="5" r="5" style="fill:#6098d1"/><path d="M10.062,25h-.038A17.739,17.739,0,0,1,.649,22.165,1.286,1.286,0,0,1,0,20.909a10.591,10.591,0,0,1,2.58-6.659A5.547,5.547,0,0,1,5.8,12.412a8.827,8.827,0,0,1,1.435-.074c.517,0,1.035,0,1.553.006,1.2.009,2.4.017,3.6-.019a5.935,5.935,0,0,1,5.29,2.857,10.658,10.658,0,0,1,1.792,5.265,9.26,9.26,0,0,1,.05,1.065,1.091,1.091,0,0,1-.472.857A16.417,16.417,0,0,1,12.9,24.7c-.647.1-1.3.161-1.959.22Z" style="fill:#6098d1"/></g></g></svg>