<svg xmlns="http://www.w3.org/2000/svg" viewBox="0 0 12.32 11.967"><title>Asset 5</title><g id="Layer_2" data-name="Layer 2"><g id="Layer_1-2" data-name="Layer 1"><path d="M6.157,11.965H2.293A2.227,2.227,0,0,1,.05,10.175,2.09,2.09,0,0,1,0,9.721Q0,5.983,0,2.245A2.235,2.235,0,0,1,2.234,0C4.09,0,5.945,0,7.8,0h2.235a2.243,2.243,0,0,1,2.277,2.015,1.823,1.823,0,0,1,.007.222q0,3.746,0,7.491A2.231,2.231,0,0,1,10.1,11.964C8.782,11.97,7.47,11.965,6.157,11.965ZM.417,4.481c0,.051-.006.085-.006.119q0,2.577,0,5.153a1.475,1.475,0,0,0,.01.221,1.815,1.815,0,0,0,1.833,1.579q3.909.007,7.818,0A1.805,1.805,0,0,0,11.909,9.7q0-2.532,0-5.063c0-.052-.005-.1-.007-.156ZM11.9,4.076c0-.042.009-.075.009-.108,0-.6,0-1.195,0-1.792a1.164,1.164,0,0,0-.018-.221A1.823,1.823,0,0,0,10.024.414q-1.294,0-2.591,0-2.583,0-5.167,0A1.815,1.815,0,0,0,.411,2.267c0,.553,0,1.106,0,1.658,0,.048.005.1.007.151Z" style="fill:#a6a8ab"/><path d="M6.161,6.872h-2.8c-.044,0-.1.016-.13-.006-.068-.053-.158-.119-.168-.19s.078-.14.14-.191a.282.282,0,0,1,.157-.022q2.8,0,5.6,0c.025,0,.049,0,.074,0,.147.013.241.1.236.214s-.1.194-.25.2Z" style="fill:#a6a8ab"/><path d="M6.159,9.119H8.941c.055,0,.123-.017.16.009.065.047.151.118.155.183s-.076.147-.14.192c-.045.032-.124.019-.188.019H3.393a1.466,1.466,0,0,1-.162-.009.182.182,0,0,1-.175-.2.187.187,0,0,1,.188-.19c.049,0,.1,0,.148,0Z" style="fill:#a6a8ab"/><path d="M2.9,2.132a.313.313,0,0,1,.3-.347.317.317,0,0,1,.312.354A.311.311,0,0,1,3.2,2.49C3.016,2.488,2.9,2.353,2.9,2.132Z" style="fill:#a6a8ab"/><path d="M9.417,2.137c0,.218-.117.353-.306.353A.313.313,0,0,1,8.8,2.134a.309.309,0,1,1,.613,0Z" style="fill:#a6a8ab"/></g></g></svg>