<svg xmlns="http://www.w3.org/2000/svg" viewBox="0 0 36.172 23.59"><title>Asset 59</title><g id="Layer_2" data-name="Layer 2"><g id="Layer_1-2" data-name="Layer 1"><path d="M17.251,16.953c.111-.914.22-1.757.309-2.6a.712.712,0,0,0-.11-.4c-.336-.582-.22-.847.437-.957a.818.818,0,0,1,.2-.024c.289.027.619.024.781.3s-.059.507-.175.747a.678.678,0,0,0-.069.353c.092.835.2,1.668.3,2.531a3.364,3.364,0,0,0,1.385-.733A8.763,8.763,0,0,0,22.9,12.157c.026-.073.045-.148.07-.221,0-.014.021-.024.043-.048a5.988,5.988,0,0,1,1.341,2.783,7.3,7.3,0,0,1,.126,1.294c.013,2.07.007,4.14,0,6.21a1.349,1.349,0,0,1-1.4,1.413q-4.992,0-9.983,0a1.348,1.348,0,0,1-1.407-1.4c0-2.225-.031-4.451.022-6.674a5.826,5.826,0,0,1,1.451-3.628C13.967,14.02,14.943,15.988,17.251,16.953Z" style="fill:#8ec0e8"/><path d="M25.7,9.682a4.182,4.182,0,0,0,8.153,0,6.118,6.118,0,0,1,1.878,2.571,6.546,6.546,0,0,1,.444,2.434q0,3.046,0,6.093A1.338,1.338,0,0,1,34.865,22.2c-3.065.012-6.131.007-9.2.007a1.076,1.076,0,0,1-.134-.024v-.325q0-3.046,0-6.093a7.358,7.358,0,0,0-1.235-4.1.338.338,0,0,1-.058-.271A5.6,5.6,0,0,1,25.7,9.682Z" style="fill:#8ec0e8"/><path d="M2.34,9.7a4.1,4.1,0,0,0,4.106,3.233A4.137,4.137,0,0,0,10.5,9.655c.3.3.574.576.847.855a1.257,1.257,0,0,1,.144.181c.161.241.42.473.447.729.024.224-.205.481-.335.716a7.355,7.355,0,0,0-.949,3.626q.006,3.033,0,6.065v.38h-.338c-2.911,0-5.823-.022-8.734.012A1.5,1.5,0,0,1,0,20.637c.041-1.991.005-3.984.016-5.977A6.271,6.271,0,0,1,2.132,9.853c.05-.045.1-.09.153-.133A.252.252,0,0,1,2.34,9.7Z" style="fill:#8ec0e8"/><path d="M18.1,1.416a4.847,4.847,0,0,1,4.414,3.023,6.236,6.236,0,0,1-1.876,7.107,4.087,4.087,0,0,1-5.361-.217A6.207,6.207,0,0,1,13.62,4.582a4.872,4.872,0,0,1,3.9-3.155.746.746,0,0,1,.115-.011Zm3.658,5.607a4.324,4.324,0,0,0-1.308-3.482,3.435,3.435,0,0,0-5.185.518,4.831,4.831,0,0,0,1.285,6.715,2.63,2.63,0,0,0,3.027.021A4.661,4.661,0,0,0,21.762,7.023Z" style="fill:#8ec0e8"/><path d="M1.546,4.853A5.046,5.046,0,0,1,3.978.727a4.56,4.56,0,0,1,6.271,1.328,5.708,5.708,0,0,1,.14,6.439,4.759,4.759,0,0,1-2.6,2.317,3.949,3.949,0,0,1-4.127-.825A6.519,6.519,0,0,1,1.546,4.853Zm1.183.365a5.065,5.065,0,0,0,1.59,3.747,2.866,2.866,0,0,0,3.437.556A4.091,4.091,0,0,0,9.474,7.69a4.553,4.553,0,0,0-.326-5.119,3.385,3.385,0,0,0-4.559-.809A4.056,4.056,0,0,0,2.729,5.218Z" style="fill:#8ec0e8"/><path d="M34.642,5.6a6.036,6.036,0,0,1-2.315,4.548,4.026,4.026,0,0,1-5.333-.171,6.243,6.243,0,0,1-1.656-6.9A4.813,4.813,0,0,1,30.086.034a4.636,4.636,0,0,1,3.8,2.421A5.66,5.66,0,0,1,34.642,5.6Zm-8.553-.328a5.153,5.153,0,0,0,1.494,3.612,2.843,2.843,0,0,0,3.36.71,4.007,4.007,0,0,0,1.626-1.444,4.755,4.755,0,0,0,.02-5.481A3.414,3.414,0,0,0,27.741,1.9,4.071,4.071,0,0,0,26.089,5.271Z" style="fill:#8ec0e8"/></g></g></svg>