<svg xmlns="http://www.w3.org/2000/svg" viewBox="0 0 35.282 28.671"><title>Asset 64</title><g id="Layer_2" data-name="Layer 2"><g id="Layer_1-2" data-name="Layer 1"><path d="M.018,23.437V21.124a5.7,5.7,0,0,0,.836-.156c.772-.269,1.531-.574,2.3-.851a7.653,7.653,0,0,1,2.722-.53,8.161,8.161,0,0,1,2.806.63c.4.156.8.323,1.25.5V8.029a2.391,2.391,0,0,0-.953-2.1A2.16,2.16,0,0,0,5.6,7.268a3.784,3.784,0,0,0-.075.737c-.011.461.005.923,0,1.385a1.108,1.108,0,0,1-1.122,1.1A1.083,1.083,0,0,1,3.318,9.378,16.344,16.344,0,0,1,3.455,6.8,4.29,4.29,0,0,1,7.047,3.363,4.388,4.388,0,0,1,12,6.78a14.389,14.389,0,0,1,.131,2.836c0,.134,0,.268,0,.438.607-.17,1.172-.328,1.736-.488l6.861-1.938c.114-.032.235-.034.233-.209-.014-1.06.021-2.123-.045-3.179A2.052,2.052,0,0,0,19.641,2.4a2.093,2.093,0,0,0-2.183.239,2.153,2.153,0,0,0-.882,1.639c-.043.6-.017,1.2-.028,1.8a1.11,1.11,0,0,1-.836,1.068,1.089,1.089,0,0,1-1.259-.6.78.78,0,0,1-.1-.34,21.816,21.816,0,0,1,.074-2.456,4.374,4.374,0,0,1,8.653-.028,6.787,6.787,0,0,1,.082,1.046q0,7.951-.011,15.905v.383a3.327,3.327,0,0,0,2-.289,13.38,13.38,0,0,1,3.016-1.03,6.33,6.33,0,0,1,3.356.224c.647.213,1.285.455,1.912.721a3.759,3.759,0,0,0,1.844.477V23.47a3.961,3.961,0,0,1-1.492-.344c-.65-.3-1.287-.628-1.944-.911a6.74,6.74,0,0,0-2.448-.592,4.891,4.891,0,0,0-2.086.438c-.918.389-1.825.8-2.755,1.161a3,3,0,0,1-2.251-.03c-.426-.172-.848-.357-1.26-.56a8.24,8.24,0,0,0-3.4-1.017,4.538,4.538,0,0,0-1.981.444c-.8.355-1.589.746-2.4,1.069a3.815,3.815,0,0,1-1.82.341,2.327,2.327,0,0,1-.645-.138c-.895-.379-1.773-.795-2.671-1.167a5.547,5.547,0,0,0-2.761-.528,7.438,7.438,0,0,0-1.7.44c-.949.354-1.872.778-2.813,1.154A6.33,6.33,0,0,1,.018,23.437ZM20.944,9.873a1.012,1.012,0,0,0-.107.018q-4.24,1.2-8.482,2.389c-.165.047-.23.112-.229.295.009,1.282.005,2.564.006,3.846,0,.072.012.145.019.222a.4.4,0,0,0,.1,0q4.278-1.2,8.556-2.408c.14-.04.159-.121.159-.244q0-1.976,0-3.949C20.958,9.992,20.95,9.943,20.944,9.873Zm0,6.614c-.066.016-.1.023-.13.032L16.267,17.8l-3.911,1.1c-.112.031-.23.039-.228.214.008.657,0,1.315,0,2.012a8.4,8.4,0,0,0,.831-.209c.713-.26,1.412-.556,2.125-.811a7.634,7.634,0,0,1,2.75-.521,8.693,8.693,0,0,1,2.9.684c.066.025.134.043.213.068Z" style="fill:#8ec0e8"/><path d="M0,28.627c0-.761,0-1.47.005-2.178,0-.058.082-.162.131-.166a12.861,12.861,0,0,0,3.025-.993,8.31,8.31,0,0,1,2.7-.521,8.136,8.136,0,0,1,2.807.624c.461.176.918.366,1.37.565a4.112,4.112,0,0,0,3.375,0c.785-.327,1.586-.623,2.4-.881a6.152,6.152,0,0,1,3.973.07c.7.244,1.376.55,2.074.8.454.163.935.251,1.388.416a1.929,1.929,0,0,0,1.434-.15c.808-.32,1.6-.673,2.413-.987a6.87,6.87,0,0,1,5.212.168c.545.218,1.075.479,1.628.677.427.152.878.237,1.35.36v2.222a3.978,3.978,0,0,1-1.492-.342c-.69-.314-1.369-.653-2.064-.956a6.872,6.872,0,0,0-2.072-.533,4.48,4.48,0,0,0-2.2.375c-.826.346-1.631.74-2.461,1.073a3.139,3.139,0,0,1-2.134.314,12.543,12.543,0,0,1-1.74-.732,9.918,9.918,0,0,0-2.934-1.012,4.506,4.506,0,0,0-2.54.41c-.793.354-1.573.739-2.38,1.059a3.808,3.808,0,0,1-1.819.343,2.429,2.429,0,0,1-.669-.145c-.887-.375-1.758-.786-2.647-1.155a5.549,5.549,0,0,0-2.76-.533,7.335,7.335,0,0,0-1.7.436c-.949.353-1.871.778-2.812,1.154A6.782,6.782,0,0,1,0,28.627Z" style="fill:#8ec0e8"/></g></g></svg>