<svg xmlns="http://www.w3.org/2000/svg" viewBox="0 0 31.993 31.992"><title>Asset 61</title><g id="Layer_2" data-name="Layer 2"><g id="Layer_1-2" data-name="Layer 1"><path d="M0,15.975A16,16,0,1,1,15.992,31.992,16.031,16.031,0,0,1,0,15.975Zm26.822,9.847a14.516,14.516,0,0,0-.9-20.585A14.492,14.492,0,0,0,6.15,5.2c.041.045.081.092.124.135q4.791,4.793,9.581,9.586a.466.466,0,0,0,.368.143q3.453-.006,6.905,0c.582,0,.8.221.8.8q0,1.709,0,3.417c0,.549-.219.773-.773.777-.636,0-1.271,0-1.906,0-.065,0-.13.01-.181.013ZM5.173,6.166A14.619,14.619,0,0,0,25.852,26.794c-.058-.061-.114-.123-.174-.182q-3.18-3.181-6.359-6.366a.6.6,0,0,0-.467-.193q-6.719.007-13.439,0c-.1,0-.2,0-.3,0a.618.618,0,0,1-.646-.687q0-1.8,0-3.6a.841.841,0,0,1,.056-.315.678.678,0,0,1,.727-.381q4.29,0,8.58,0h.242Zm5.5,12.547h7.092c-.04-.048-.057-.074-.079-.1-.7-.7-1.4-1.407-2.107-2.1a.508.508,0,0,0-.328-.113c-1.441-.008-2.882-.005-4.323-.005-.083,0-.165.008-.255.013Zm6.71-2.3a.633.633,0,0,0,.055.088c.716.718,1.431,1.437,2.153,2.148a.384.384,0,0,0,.247.086c.859.006,1.718,0,2.577,0a1.4,1.4,0,0,0,.168-.018V16.409ZM9.324,18.72v-2.3h-3.5v2.315H9.191C9.229,18.734,9.266,18.726,9.324,18.72Z" style="fill:#8ec0e8"/></g></g></svg>