<svg xmlns="http://www.w3.org/2000/svg" viewBox="0 0 45.302 19.698"><title>Asset 65</title><g id="Layer_2" data-name="Layer 2"><g id="Layer_1-2" data-name="Layer 1"><path d="M11.324,9.863q0,4.164,0,8.327a1.355,1.355,0,0,1-1.373,1.481q-2.154.054-4.311,0a1.359,1.359,0,0,1-1.392-1.5q0-8.326.011-16.654A2.047,2.047,0,0,1,4.51.628a1.1,1.1,0,0,1,1-.6C6.878.011,8.249.011,9.62.006a4.428,4.428,0,0,1,.46.023A1.375,1.375,0,0,1,11.324,1.4Q11.327,5.634,11.324,9.863Z" style="fill:#8ec0e8"/><path d="M33.978,9.848V1.488A1.349,1.349,0,0,1,35.335.026q2.187-.052,4.376,0A1.335,1.335,0,0,1,41.054,1.47q0,8.376,0,16.753a1.334,1.334,0,0,1-1.341,1.443q-2.2.054-4.408,0a1.344,1.344,0,0,1-1.327-1.457Z" style="fill:#8ec0e8"/><path d="M32.539,7.047c.008.115.02.211.02.307,0,1.657,0,3.314.007,4.971,0,.274-.078.349-.352.349q-9.562-.012-19.127,0c-.2,0-.352.007-.35-.28.012-1.7.006-3.4.007-5.1a2.217,2.217,0,0,1,.029-.24Z" style="fill:#8ec0e8"/><path d="M2.813,15.435A16.563,16.563,0,0,1,1.1,15.423a1.348,1.348,0,0,1-1.1-1.3Q0,9.847,0,5.572a1.346,1.346,0,0,1,1.1-1.3,16.264,16.264,0,0,1,1.713-.013Z" style="fill:#8ec0e8"/><path d="M42.486,15.45V4.2a14.363,14.363,0,0,1,1.82.106,1.3,1.3,0,0,1,1,1.307q0,4.225,0,8.451a1.362,1.362,0,0,1-1.272,1.377C43.527,15.473,43.023,15.45,42.486,15.45Z" style="fill:#8ec0e8"/></g></g></svg>