<svg xmlns="http://www.w3.org/2000/svg" viewBox="0 0 29.9 27.686"><title>Asset 66</title><g id="Layer_2" data-name="Layer 2"><g id="Layer_1-2" data-name="Layer 1"><path d="M26.582,9.313v2.908h-.735V3.309c-11.508-7.446-21.952,0-21.952,0v8.912H3.188V9.313H0v4.306H3.9V23.714a3.4,3.4,0,0,0,1.85.678L5.7,27.228c1.126.63,4.457.18,4.457.18V24.8h9.374v2.556a8.328,8.328,0,0,0,4.5,0V24.7c1.5,0,1.813-.983,1.813-.983V13.619H29.9V9.313ZM10.333,1.957h9.311V4.076H10.333ZM7.879,22.209a2.187,2.187,0,1,1,2.186-2.187A2.187,2.187,0,0,1,7.879,22.209Zm5.982-8.366H5.692v-7.1h8.169Zm7.97,8.366a2.187,2.187,0,1,1,2.186-2.187A2.187,2.187,0,0,1,21.831,22.209Zm2.186-8.366H15.849v-7.1h8.168Z" style="fill:#8ec0e8"/></g></g></svg>