<svg xmlns="http://www.w3.org/2000/svg" viewBox="0 0 30.282 28.699"><title>Asset 57</title><g id="Layer_2" data-name="Layer 2"><g id="Layer_1-2" data-name="Layer 1"><path d="M8.573,4.343c0-.5,0-.96,0-1.422A1.923,1.923,0,0,1,9.753,1.032,9,9,0,0,1,11.979.093a5.672,5.672,0,0,1,.89-.087q2.274-.012,4.548,0a4.19,4.19,0,0,1,1.951.451c.41.212.833.4,1.245.61a1.9,1.9,0,0,1,1.106,1.762c.011.491,0,.983,0,1.516h.356q3.229,0,6.459,0a1.573,1.573,0,0,1,1.5.8,1.794,1.794,0,0,1,.233.815c.016,3.4.008,6.8.011,10.2a1.708,1.708,0,0,1-.583,1.331.563.563,0,0,0-.126.378q-.011,4.272,0,8.545A1.79,1.79,0,0,1,27.8,28.329c-2.786.129-5.573.28-8.361.331-3.05.057-6.1.047-9.152,0-2.277-.035-4.552-.172-6.828-.266-.347-.015-.693-.041-1.04-.065a1.808,1.808,0,0,1-1.689-1.8q0-4.331,0-8.661A.549.549,0,0,0,.524,17.4a1.559,1.559,0,0,1-.512-1.241q.006-2.752,0-5.5C.014,9.13.046,7.6,0,6.079a1.7,1.7,0,0,1,1.75-1.741c2.144.017,4.287,0,6.431,0ZM2.644,26.458a221.5,221.5,0,0,0,25,0V17.945l-2.94.144c0,.571,0,1.112,0,1.652a.941.941,0,0,1-.931.976.921.921,0,0,1-.917-.98c0-.519,0-1.037,0-1.573l-5.13.106a1.589,1.589,0,0,1-1.547,1.452,15.818,15.818,0,0,1-2.054,0,1.9,1.9,0,0,1-.86-.29,1.582,1.582,0,0,1-.683-1.159l-5.134-.1c0,.554,0,1.092,0,1.63a.917.917,0,0,1-1.333.818.9.9,0,0,1-.515-.841c-.006-.557,0-1.114,0-1.684l-2.949-.14ZM7.463,6.263v10l5.108.1.049-.181a1.579,1.579,0,0,1,1.624-1.248c.647,0,1.294-.006,1.94,0a1.357,1.357,0,0,1,1.144.575,7.769,7.769,0,0,1,.453.85l5.054-.106v-10Zm-1.88.01H1.915V16l3.668.181Zm19.135-.012v9.924L28.374,16V6.261ZM10.33,4.325h9.633c0-.507.01-1-.009-1.486,0-.084-.115-.193-.2-.24a9.9,9.9,0,0,0-1.168-.567,3.57,3.57,0,0,0-1.137-.263c-1.533-.029-3.067-.022-4.6,0a2.776,2.776,0,0,0-.955.181,14.271,14.271,0,0,0-1.376.665.345.345,0,0,0-.177.229C10.322,3.329,10.33,3.819,10.33,4.325Zm4.788,13.926c.289,0,.579-.007.867,0,.17,0,.248-.048.245-.229-.006-.462,0-.925,0-1.387,0-.175-.077-.24-.246-.239q-.838.006-1.678,0c-.169,0-.246.066-.244.24,0,.463.006.926,0,1.388,0,.182.081.232.247.227C14.578,18.245,14.848,18.251,15.118,18.251Z" style="fill:#8ec0e8"/></g></g></svg>