<svg xmlns="http://www.w3.org/2000/svg" viewBox="0 0 41.865 21.825"><title>Asset 62</title><g id="Layer_2" data-name="Layer 2"><g id="Layer_1-2" data-name="Layer 1"><path d="M29.506,21.825H12.362a8.264,8.264,0,0,1,3.285-6.694,8.262,8.262,0,0,1,9.307-.837A8.4,8.4,0,0,1,29.506,21.825Z" style="fill:#8ec0e8"/><path d="M0,19.023a8.539,8.539,0,0,1,15.479-4.989c-.358.3-.727.594-1.074.911a9.153,9.153,0,0,0-2.467,3.775.369.369,0,0,1-.409.3q-5.619,0-11.238.018C.2,19.043.112,19.031,0,19.023Z" style="fill:#8ec0e8"/><path d="M41.863,18.964c-.1.008-.2.024-.3.024l-11.2.047c-.161,0-.291.016-.367-.205a9.36,9.36,0,0,0-3.4-4.63c-.073-.054-.137-.118-.2-.177a8.537,8.537,0,0,1,15.473,4.941Z" style="fill:#8ec0e8"/><path d="M28.556,4.735a4.767,4.767,0,1,1,4.779,4.748A4.747,4.747,0,0,1,28.556,4.735Z" style="fill:#8ec0e8"/><path d="M13.328,4.72A4.766,4.766,0,1,1,8.563,0,4.762,4.762,0,0,1,13.328,4.72Z" style="fill:#8ec0e8"/><path d="M20.93,12.324a4.741,4.741,0,1,1,4.78-4.71A4.76,4.76,0,0,1,20.93,12.324Z" style="fill:#8ec0e8"/></g></g></svg>