<svg xmlns="http://www.w3.org/2000/svg" viewBox="0 0 39.989 18.248"><title>Asset 58</title><g id="Layer_2" data-name="Layer 2"><g id="Layer_1-2" data-name="Layer 1"><path d="M20,18.248H1.392C.262,18.247,0,17.985,0,16.853V1.3C0,.3.3,0,1.292,0h37.4c1,0,1.295.3,1.295,1.3V16.947c0,1-.3,1.3-1.292,1.3Zm17.981-2V2.013H2.011V16.245H4.98c0-1.056,0-2.085,0-3.115,0-.979.326-1.314,1.3-1.314q13.713,0,27.427,0c.977,0,1.3.333,1.3,1.308,0,1.031,0,2.061,0,3.12Zm-5-2.423H7.023v2.151H32.974Z" style="fill:#8ec0e8"/><path d="M15.734,3.694q4.72,0,9.441,0a2.286,2.286,0,0,1,.574.05,1,1,0,0,1,.728.971.986.986,0,0,1-.831.928,3.969,3.969,0,0,1-.626.044q-9.3,0-18.591,0a3.98,3.98,0,0,1-.578-.037.993.993,0,0,1-.87-.992A1.03,1.03,0,0,1,5.906,3.7a3.943,3.943,0,0,1,.435-.008Z" style="fill:#8ec0e8"/><path d="M15.73,9.9q-4.817,0-9.634,0a1.033,1.033,0,0,1-1.018-.6.838.838,0,0,1,.134-.989,1.389,1.389,0,0,1,.6-.357,2.311,2.311,0,0,1,.673-.042q9.246,0,18.494,0a5.243,5.243,0,0,1,.627.028.991.991,0,0,1,.874.988,1.023,1.023,0,0,1-.919.959c-.16.015-.323.008-.484.008Z" style="fill:#8ec0e8"/><circle cx="32.983" cy="6.991" r="2.229" style="fill:#8ec0e8"/></g></g></svg>