<svg xmlns="http://www.w3.org/2000/svg" viewBox="0 0 18.789 37.035"><title>Asset 63</title><g id="Layer_2" data-name="Layer 2"><g id="Layer_1-2" data-name="Layer 1"><path d="M9.426.334c.514.059,1.036.077,1.54.183a8.954,8.954,0,0,1,7.169,6.711A6.568,6.568,0,0,1,18.4,9.77a2.324,2.324,0,0,1-4.637-.208A4.37,4.37,0,0,0,8.94,5.214a4.366,4.366,0,0,0-.521,8.605,5.513,5.513,0,0,0,1.2.12c2.439.011,4.879.031,7.318-.006a1.439,1.439,0,0,1,1.522,1.512c-.018,6.629-.009,13.258-.011,19.887a1.3,1.3,0,0,1-1.268,1.358c-.084.007-.169.01-.254.01q-7.54,0-15.082,0A1.33,1.33,0,0,1,.365,35.631a1.611,1.611,0,0,1-.029-.347q0-12.886,0-25.773A9.174,9.174,0,0,1,7.6.545c.412-.088.839-.1,1.259-.152l.5-.059ZM1.216,22.169v12.98c0,.559.128.688.693.688H16.861c.582,0,.709-.127.709-.706V15.566c0-.658-.1-.757-.747-.757q-3.579,0-7.158,0a7.04,7.04,0,0,1-.953-.041,5.255,5.255,0,1,1,5.932-5.215A1.471,1.471,0,0,0,15.66,10.94a1.452,1.452,0,0,0,1.628-.559,1.878,1.878,0,0,0,.268-1.308,8.6,8.6,0,0,0-2.047-5.024A8.044,8.044,0,0,0,6.061,1.975,8.066,8.066,0,0,0,1.228,9.6C1.176,13.792,1.216,17.981,1.216,22.169Z" style="fill:#8ec0e8"/><path d="M16.923,37.035l-15.082,0a1.655,1.655,0,0,1-1.8-1.33A2.025,2.025,0,0,1,0,35.283V30.13Q0,19.821,0,9.511A9.551,9.551,0,0,1,7.533.219,7.5,7.5,0,0,1,8.42.1c.134-.011.269-.024.4-.04L9.445,0l.02,0c.161.018.323.033.485.046a9.331,9.331,0,0,1,1.085.144,9.28,9.28,0,0,1,7.42,6.941,6.862,6.862,0,0,1,.28,2.671,2.634,2.634,0,0,1-2.619,2.4h-.088a2.642,2.642,0,0,1-2.595-2.64A4.037,4.037,0,0,0,8.97,5.545a4.033,4.033,0,0,0-.479,7.949,5.214,5.214,0,0,0,1.128.112l1.083.005c2.041.013,4.152.026,6.227-.013h.03a1.792,1.792,0,0,1,1.3.5,1.859,1.859,0,0,1,.535,1.346q-.02,6.958-.011,13.921v5.967a1.639,1.639,0,0,1-1.572,1.692C17.107,37.03,17.014,37.035,16.923,37.035ZM9.362.666,8.9.724c-.142.015-.283.028-.422.041a7.457,7.457,0,0,0-.811.1,8.888,8.888,0,0,0-7,8.641q-.007,10.31,0,20.619v5.153a1.484,1.484,0,0,0,.022.281c.073.344.273.8,1.15.8l15.082,0c.078,0,.156-.005.234-.01a.964.964,0,0,0,.954-1.026V29.365q0-6.96.012-13.921a1.23,1.23,0,0,0-.337-.872,1.21,1.21,0,0,0-.848-.307c-2.079.036-4.193.026-6.239.013l-1.084-.006a5.837,5.837,0,0,1-1.271-.127A4.7,4.7,0,0,1,8.91,4.884,4.7,4.7,0,0,1,14.1,9.56a1.99,1.99,0,0,0,3.972.177,6.183,6.183,0,0,0-.257-2.416A8.657,8.657,0,0,0,10.9.844,8.731,8.731,0,0,0,9.891.713C9.729.7,9.568.685,9.406.666Zm7.5,35.5H1.908c-.747,0-1.026-.276-1.026-1.02V22.169q0-1.909-.007-3.82C.867,15.483.858,12.518.894,9.6A8.364,8.364,0,0,1,5.915,1.674a8.425,8.425,0,0,1,9.849,2.158,8.992,8.992,0,0,1,2.125,5.215,2.211,2.211,0,0,1-.331,1.528,1.764,1.764,0,0,1-2,.683,1.81,1.81,0,0,1-1.251-1.7,4.891,4.891,0,0,0-4.219-4.869A4.748,4.748,0,0,0,6.48,5.6a4.861,4.861,0,0,0-1.95,3.23,4.911,4.911,0,0,0,4.228,5.608,5.269,5.269,0,0,0,.853.037c1.842,0,3.629,0,5.421,0h1.79c.84,0,1.082.245,1.082,1.091V35.132C17.9,35.9,17.629,36.17,16.86,36.17ZM9.335,1.573a7.148,7.148,0,0,0-3.128.7A7.743,7.743,0,0,0,1.561,9.61c-.037,2.91-.028,5.873-.02,8.739q.006,1.911.008,3.82V35.15c0,.255.031.31.038.318a.721.721,0,0,0,.321.036H16.86a.765.765,0,0,0,.34-.039.792.792,0,0,0,.036-.333l0-19.566a.99.99,0,0,0-.038-.4,1.315,1.315,0,0,0-.378-.029h-1.79q-2.679,0-5.369,0a7.981,7.981,0,0,1-1-.041,5.581,5.581,0,0,1-4.8-6.363A5.519,5.519,0,0,1,6.084,5.061a5.443,5.443,0,0,1,4.109-1.033A5.615,5.615,0,0,1,14.977,9.55a1.117,1.117,0,0,0,2.039.638A1.562,1.562,0,0,0,17.225,9.1a8.224,8.224,0,0,0-1.971-4.834A7.811,7.811,0,0,0,9.335,1.573Z" style="fill:#8ec0e8"/><path d="M8.308,28.754c.56-.556,1.081-1.069,1.6-1.586q1.731-1.734,3.459-3.47a1.313,1.313,0,0,1,.236-.212.411.411,0,0,1,.549.054.4.4,0,0,1,.04.55A1.463,1.463,0,0,1,14,24.3q-2.607,2.613-5.215,5.224c-.384.386-.542.386-.923.006q-1.542-1.54-3.082-3.082a1.36,1.36,0,0,1-.189-.213.428.428,0,0,1,.6-.6,1.9,1.9,0,0,1,.258.234C6.4,26.829,7.343,27.784,8.308,28.754Z" style="fill:#8ec0e8"/><path d="M8.319,30.151a1.035,1.035,0,0,1-.7-.383L4.543,26.683a1.736,1.736,0,0,1-.232-.263.737.737,0,0,1,.091-.971.727.727,0,0,1,.975-.08,1.942,1.942,0,0,1,.282.249L8.31,28.282l.009-.008c.468-.463.91-.9,1.35-1.341l3.459-3.47a1.626,1.626,0,0,1,.3-.261.759.759,0,0,1,.964.107.73.73,0,0,1,.078.966,1.322,1.322,0,0,1-.2.229L9.018,29.761A1.04,1.04,0,0,1,8.319,30.151ZM4.932,25.887c-.021,0-.038.013-.062.039s-.052.052,0,.127A.914.914,0,0,0,5,26.2l3.1,3.1c.166.164.222.185.232.188a2.094,2.094,0,0,0,.22-.193l5.215-5.225a1.543,1.543,0,0,0,.15-.162c.052-.078.036-.093,0-.132s-.052-.052-.138,0a.9.9,0,0,0-.141.128l-3.492,3.5c-.44.442-.884.882-1.353,1.346l-.482.476-3.1-3.113A1.433,1.433,0,0,0,5,25.918.127.127,0,0,0,4.932,25.887Z" style="fill:#8ec0e8"/></g></g></svg>