<svg xmlns="http://www.w3.org/2000/svg" viewBox="0 0 12.734 12.994"><title>Asset 4</title><g id="Layer_2" data-name="Layer 2"><g id="Layer_1-2" data-name="Layer 1"><path d="M.25,6.49A6.17,6.17,0,0,1,6.516.252,6.175,6.175,0,0,1,12.484,6.51,6.174,6.174,0,0,1,6.3,12.743,6.179,6.179,0,0,1,.25,6.49ZM9.492,8.577a10.015,10.015,0,0,0,.2-1.5A10.31,10.31,0,0,0,9.547,4.7c-.014-.078-.042-.091-.111-.091q-1.348,0-2.7,0H6.65V8.577ZM3.38,4.608c-.039.293-.08.581-.115.869-.018.152-.03.306-.037.46A10.279,10.279,0,0,0,3.411,8.5c.013.067.035.085.1.085.891,0,1.782,0,2.674,0h.081V4.608Zm-.369,0a.273.273,0,0,0-.039,0c-.664,0-1.328,0-1.992,0-.054,0-.063.03-.076.07A5.829,5.829,0,0,0,.625,6.228a5.955,5.955,0,0,0,.342,2.28.09.09,0,0,0,.1.074c.638,0,1.275,0,1.912,0,.023,0,.045,0,.07-.005A10.633,10.633,0,0,1,3.011,4.611Zm6.86,3.966.05,0c.587,0,1.174,0,1.761,0,.05,0,.067-.021.082-.063A6.1,6.1,0,0,0,12.1,6.887a6,6,0,0,0-.266-2.2c-.019-.061-.043-.083-.108-.083-.579,0-1.158,0-1.737,0H9.908A10.7,10.7,0,0,1,9.871,8.577ZM6.65,4.217h2.8c-.023-.092-.043-.178-.066-.263A6.266,6.266,0,0,0,8.289,1.661,2.742,2.742,0,0,0,7.1.743C6.953.691,6.8.664,6.65.624Zm-.382,0V.622c-.157.043-.308.072-.45.125A2.84,2.84,0,0,0,4.551,1.762a6.172,6.172,0,0,0-.945,1.953c-.05.164-.091.33-.138.5ZM6.652,8.96v3.395a1.977,1.977,0,0,0,.8-.27,3.28,3.28,0,0,0,1-.958,6.439,6.439,0,0,0,.907-1.98c.018-.061.033-.122.05-.187Zm-3.127,0a.356.356,0,0,0,0,.054,6.478,6.478,0,0,0,1.024,2.222,3.154,3.154,0,0,0,.958.872,1.9,1.9,0,0,0,.755.247V8.959ZM3.088,4.22A.174.174,0,0,0,3.1,4.19,7.628,7.628,0,0,1,3.86,2.145,4.418,4.418,0,0,1,4.882.867C4.9.854,4.913.839,4.929.825A5.608,5.608,0,0,0,2.12,2.542,5.762,5.762,0,0,0,1.071,4.22Zm1.841,7.95a.09.09,0,0,0-.015-.018A4.07,4.07,0,0,1,4.007,11.1a7.1,7.1,0,0,1-.845-2.037c-.02-.082-.05-.11-.136-.109-.59.005-1.179,0-1.769,0H1.142A5.772,5.772,0,0,0,4.929,12.17Zm6.736-7.95a5.845,5.845,0,0,0-1.357-2A5.719,5.719,0,0,0,8.079.893,6.346,6.346,0,0,1,9.834,4.22ZM8.089,12.085a5.614,5.614,0,0,0,2.635-1.761,5.705,5.705,0,0,0,.86-1.368H11.5c-.542,0-1.085,0-1.627,0-.068,0-.089.025-.1.086a7.539,7.539,0,0,1-.415,1.227,5.223,5.223,0,0,1-1.128,1.7C8.178,12.005,8.133,12.045,8.089,12.085Z" style="fill:#2597c8;stroke:#2597c8;stroke-miterlimit:10;stroke-width:0.5px"/></g></g></svg>