<svg xmlns="http://www.w3.org/2000/svg" viewBox="0 0 17.51 9.368"><title>Asset 7</title><g id="Layer_2" data-name="Layer 2"><g id="Layer_1-2" data-name="Layer 1"><path d="M12.239,9.118H5.273A3.357,3.357,0,0,1,6.608,6.4a3.355,3.355,0,0,1,3.781-.34A3.412,3.412,0,0,1,12.239,9.118Z" style="fill:none;stroke:#a6a8ab;stroke-miterlimit:10;stroke-width:0.5px"/><path d="M.25,7.979A3.469,3.469,0,0,1,6.539,5.952c-.145.123-.295.242-.436.371a3.715,3.715,0,0,0-1,1.533.15.15,0,0,1-.167.124q-2.283,0-4.566.007C.332,7.987.3,7.982.25,7.979Z" style="fill:none;stroke:#a6a8ab;stroke-miterlimit:10;stroke-width:0.5px"/><path d="M17.259,7.955a1.189,1.189,0,0,1-.12.01l-4.553.019c-.066,0-.119.007-.149-.083A3.8,3.8,0,0,0,11.056,6.02c-.03-.022-.056-.048-.083-.072a3.468,3.468,0,0,1,6.286,2.007Z" style="fill:none;stroke:#a6a8ab;stroke-miterlimit:10;stroke-width:0.5px"/><path d="M11.853,2.174A1.937,1.937,0,1,1,13.8,4.1,1.928,1.928,0,0,1,11.853,2.174Z" style="fill:none;stroke:#a6a8ab;stroke-miterlimit:10;stroke-width:0.5px"/><path d="M5.665,2.168A1.937,1.937,0,1,1,3.729.25,1.934,1.934,0,0,1,5.665,2.168Z" style="fill:none;stroke:#a6a8ab;stroke-miterlimit:10;stroke-width:0.5px"/><path d="M8.754,5.258A1.927,1.927,0,1,1,10.7,3.344,1.934,1.934,0,0,1,8.754,5.258Z" style="fill:none;stroke:#a6a8ab;stroke-miterlimit:10;stroke-width:0.5px"/></g></g></svg>