<?xml version="1.0" encoding="utf-8"?>
<!-- Generator: Adobe Illustrator 22.0.1, SVG Export Plug-In . SVG Version: 6.00 Build 0)  -->
<svg version="1.1" id="Layer_1" xmlns="http://www.w3.org/2000/svg" xmlns:xlink="http://www.w3.org/1999/xlink" x="0px" y="0px"
	 viewBox="0 0 32 32" style="enable-background:new 0 0 32 32;" xml:space="preserve">
<style type="text/css">
	.st0{fill:#4586BC;}
	.st1{fill:none;stroke:#FFFFFF;stroke-width:0.5;stroke-miterlimit:10;}
</style>
<path class="st0" d="M25.5,29.9H6.3c-2.3,0-4.1-1.8-4.1-4.1V6.6c0-2.3,1.8-4.1,4.1-4.1h19.3c2.3,0,4.1,1.8,4.1,4.1v19.3
	C29.6,28.1,27.8,29.9,25.5,29.9z"/>
<g>
	<circle class="st1" cx="15.9" cy="9" r="4.3"/>
	<path class="st1" d="M16.2,25.8L16.2,25.8c-2.8-0.1-5.5-0.8-7.8-2.3c-0.4-0.3-0.6-0.6-0.5-1C8,20.2,8.7,18.4,9.9,17
		c0.8-0.8,1.7-1.3,2.7-1.5c0.4-0.1,0.8-0.1,1.2-0.1c0.4,0,0.9,0,1.3,0c1,0,2,0,3,0c1.8-0.1,3.3,0.7,4.4,2.4c0.9,1.2,1.3,2.7,1.5,4.3
		c0,0.3,0,0.6,0,0.9c0,0.3-0.2,0.6-0.4,0.7c-1.6,1-3.3,1.6-5.1,1.9c-0.5,0.1-1.1,0.1-1.6,0.2L16.2,25.8z"/>
</g>
</svg>
