<svg xmlns="http://www.w3.org/2000/svg" viewBox="0 0 14.493 14.493"><title>Asset 7</title><g id="Layer_2" data-name="Layer 2"><g id="Layer_1-2" data-name="Layer 1"><circle cx="7.247" cy="7.247" r="6.872" style="fill:none;stroke:#2597c8;stroke-miterlimit:10;stroke-width:0.75px"/><path d="M6.255,3.571a.9.9,0,0,1,.277-.651.953.953,0,0,1,.7-.276,1.02,1.02,0,0,1,.714.264.86.86,0,0,1,.29.663.859.859,0,0,1-.29.662,1.021,1.021,0,0,1-.714.265.949.949,0,0,1-.7-.277A.892.892,0,0,1,6.255,3.571Zm.219,2.1H8.019v6.18H6.474Z" style="fill:#2597c8"/></g></g></svg>