<svg xmlns="http://www.w3.org/2000/svg" viewBox="0 0 16.868 24.892"><title>Asset 4</title><g id="Layer_2" data-name="Layer 2"><g id="Layer_1-2" data-name="Layer 1"><path d="M8.426,24.892c-.329-.435-.648-.85-.96-1.27A62.419,62.419,0,0,1,2.3,15.53a23.962,23.962,0,0,1-2-4.9,8.388,8.388,0,0,1,3.35-9.143A8.186,8.186,0,0,1,7.4.063a8.425,8.425,0,0,1,9.31,6.753,8.625,8.625,0,0,1-.3,4.348,34.574,34.574,0,0,1-3.735,7.649,69.159,69.159,0,0,1-4.151,5.959C8.506,24.805,8.477,24.835,8.426,24.892Zm0-12.335a4.128,4.128,0,1,0-4.125-4.14A4.117,4.117,0,0,0,8.431,12.557Z" style="fill:#6098d1"/></g></g></svg>