<svg xmlns="http://www.w3.org/2000/svg" viewBox="0 0 13.085 9.159"><title>Asset 5</title><g id="Layer_2" data-name="Layer 2"><g id="Layer_1-2" data-name="Layer 1"><path d="M6.528,0c2.02,0,4.04,0,6.06,0a.5.5,0,0,1,.5.5q-.008,4.1,0,8.19a.452.452,0,0,1-.33.451.569.569,0,0,1-.154.018H.479a.454.454,0,0,1-.47-.352A.338.338,0,0,1,0,8.723V.448A.447.447,0,0,1,.448,0Zm5.685,1.713-.25.212L9.806,3.766,7.731,5.534c-.3.255-.6.511-.9.764a.464.464,0,0,1-.588,0L4.582,4.879,1.123,1.932c-.082-.07-.164-.138-.252-.212V8.289H12.213ZM1.263.884,6.547,5.378,11.817.884Z" style="fill:#2597c8"/></g></g></svg>