<svg id="Layer_1" data-name="Layer 1" xmlns="http://www.w3.org/2000/svg" viewBox="0 0 7.44 7.48"><defs><style>.cls-1{fill:none;stroke:#2495c6;stroke-miterlimit:10;stroke-width:0.7px;}</style></defs><title>phone-outline</title><path class="cls-1" d="M4,3.28a3.21,3.21,0,0,0,.36.59,6,6,0,0,0,1,1A3.08,3.08,0,0,0,6,5.24s0,0,0,0l.47-.47a.66.66,0,0,1,.38-.21.6.6,0,0,1,.58.17L8,5.24l.39.4A.64.64,0,0,1,8.54,6a.66.66,0,0,1-.14.56,3.31,3.31,0,0,1-.26.27l-.28.29a1.12,1.12,0,0,1-.76.36,2.5,2.5,0,0,1-1-.17,6.54,6.54,0,0,1-1.8-1A7.49,7.49,0,0,1,2.44,4.17a5.38,5.38,0,0,1-.55-1.28,3,3,0,0,1-.08-.66,1.09,1.09,0,0,1,.32-.76c.17-.19.35-.37.53-.55A.72.72,0,0,1,3.09.7a.63.63,0,0,1,.55.19c.3.3.6.59.9.9a.65.65,0,0,1,.2.54.63.63,0,0,1-.17.39l-.49.5Z" transform="translate(-1.46 -0.35)"/></svg>