<svg xmlns="http://www.w3.org/2000/svg" viewBox="0 0 19.868 19.975"><title>Asset 6</title><g id="Layer_2" data-name="Layer 2"><g id="Layer_1-2" data-name="Layer 1"><path d="M6.485,7.61A8.255,8.255,0,0,0,7.544,9.352a16.5,16.5,0,0,0,3.072,3.062,8.563,8.563,0,0,0,1.6.974.114.114,0,0,0,.153-.028q.692-.7,1.387-1.389a2.134,2.134,0,0,1,1.116-.624,1.856,1.856,0,0,1,1.71.511c.519.5,1.021,1.02,1.529,1.532.386.39.774.78,1.157,1.174a2.046,2.046,0,0,1,.558,1.041A1.929,1.929,0,0,1,19.4,17.25c-.228.28-.5.526-.749.786-.278.287-.561.57-.835.861a3.273,3.273,0,0,1-2.236,1.066,7.278,7.278,0,0,1-2.977-.512,19.009,19.009,0,0,1-5.311-2.989,22.126,22.126,0,0,1-5.435-6.215A15.21,15.21,0,0,1,.242,6.453,6.558,6.558,0,0,1,0,4.517,3.263,3.263,0,0,1,.925,2.273C1.445,1.736,1.962,1.2,2.49.667A2.11,2.11,0,0,1,3.76.016,1.91,1.91,0,0,1,5.386.573q1.335,1.307,2.64,2.64a1.974,1.974,0,0,1,.612,1.6A1.868,1.868,0,0,1,8.131,5.96c-.474.5-.971.984-1.458,1.474C6.615,7.492,6.553,7.546,6.485,7.61Z" style="fill:#6098d1"/></g></g></svg>