<svg xmlns="http://www.w3.org/2000/svg" viewBox="0 0 15.215 12.073"><title>Photos icon</title><g id="Layer_2" data-name="Layer 2"><g id="Layer_1-2" data-name="Layer 1"><path d="M15.215,12.073H0V2.178H1.64c.69,0,1.384,0,2.076,0q.151-.456.308-.911L4.291.482A.7.7,0,0,1,4.951,0Q7.44.008,9.924,0a.777.777,0,0,1,.647.4l.943,1.783c.7,0,1.386,0,2.08,0h1.621ZM1,11.073H14.215V3.178h-.621c-.747,0-1.492,0-2.24,0h-.008a.729.729,0,0,1-.645-.4L9.759,1q-2.3.008-4.589,0l-.2.591c-.123.361-.247.721-.366,1.085a.763.763,0,0,1-.691.5c-.757,0-1.517,0-2.274,0H1ZM11.585,2.315l0,0Zm-.235-.134h0Zm-7.432,0h0ZM9.925,1h0ZM9.685.859v0Z" style="fill:#29abe2"/><path d="M7.408,9.425a2.612,2.612,0,0,1-1.845-.781,2.83,2.83,0,0,1-.831-1.988h0A2.771,2.771,0,1,1,7.418,9.425ZM7.5,4.889A1.771,1.771,0,0,0,5.732,6.656a1.822,1.822,0,0,0,.537,1.279,1.467,1.467,0,0,0,1.145.49A1.769,1.769,0,1,0,7.5,4.889Z" style="fill:#29abe2"/></g></g></svg>