<svg xmlns="http://www.w3.org/2000/svg" viewBox="0 0 75.161 75.131"><title>Asset 3</title><g id="Layer_2" data-name="Layer 2"><g id="Layer_1-2" data-name="Layer 1"><circle cx="36.726" cy="36.649" r="29.753" style="fill:#8dcfb7;opacity:0.9"/><path d="M37.564,3.083A34.5,34.5,0,0,0,4.158,29.53c-2.8,12.236.29,22.967,8.856,32.128a1.777,1.777,0,0,1,.683,1.578,1.532,1.532,0,0,1-1.069,1.272,1.618,1.618,0,0,1-1.7-.433,38.477,38.477,0,0,1-5.593-7.164,36.288,36.288,0,0,1-5.025-14.5A36.778,36.778,0,0,1,9.041,13.179,37.352,37.352,0,0,1,42.187.3a36.871,36.871,0,0,1,20.071,9A37.1,37.1,0,0,1,74.026,28.582a34.96,34.96,0,0,1,.946,12.389A37.153,37.153,0,0,1,58.82,68.5a35.341,35.341,0,0,1-15.758,6.2c-1.778.243-3.582.313-5.377.425a1.532,1.532,0,0,1-1.581-.943,1.5,1.5,0,0,1,.254-1.675,1.714,1.714,0,0,1,1.422-.549,32.633,32.633,0,0,0,12.131-2.312c11.171-4.6,18.5-12.716,21.114-24.529,2.894-13.064-.962-24.256-10.758-33.307a32.485,32.485,0,0,0-17.12-8.161C41.305,3.348,39.426,3.266,37.564,3.083Z" style="fill:#404041"/><path d="M9.032,25.186A31.076,31.076,0,0,1,20.791,11.492a29.01,29.01,0,0,1,9.986-4.2,30.828,30.828,0,0,1,25.971,5.833,23.3,23.3,0,0,1,2.628,2.315A31.129,31.129,0,0,1,68.58,39.1,28.621,28.621,0,0,1,66.3,49.374,31.034,31.034,0,0,1,31.9,68.1a29.219,29.219,0,0,1-12.841-5.589c-1.182-.9-2.278-1.911-3.392-2.9a1.265,1.265,0,0,1-.374-1.475,1.237,1.237,0,0,1,1.128-.832,1.42,1.42,0,0,1,1.153.511,27,27,0,0,0,8.445,5.742c9.223,3.843,18.254,3.381,26.692-2C62.038,55.621,66.328,46.821,65.892,35.8a26.862,26.862,0,0,0-5.239-14.784c-.345-.481-.712-.946-1.089-1.4A28.037,28.037,0,0,0,22.72,13.349,27.893,27.893,0,0,0,11.443,26.168a1.306,1.306,0,0,1-1.571.762h0A1.3,1.3,0,0,1,9.032,25.186Z" style="fill:#404041"/><path d="M39.561,54.555c0,1.467.01,2.885,0,4.3a1.6,1.6,0,1,1-3.2.025c-.01-1.237,0-2.475,0-3.712v-.629a10.334,10.334,0,0,1-8.673-10.077,1.548,1.548,0,0,1,1.568-1.655,1.581,1.581,0,0,1,1.6,1.515,7.657,7.657,0,0,0,4.035,6.439,6.864,6.864,0,0,0,7.612-.908c3.373-2.646,3.442-8.246.155-10.811a9.606,9.606,0,0,0-5.007-1.8,11.3,11.3,0,0,1-3.806-1.057,7.477,7.477,0,0,1-4.28-6.887,8.37,8.37,0,0,1,6.373-8.558.544.544,0,0,0,.429-.533q-.025-1.994,0-3.986a1.558,1.558,0,0,1,1.276-1.6,1.514,1.514,0,0,1,1.772.914,2.367,2.367,0,0,1,.144.85c.015,1.219.028,2.439,0,3.657a.6.6,0,0,0,.555.73,8.409,8.409,0,0,1,6.262,7.98,1.616,1.616,0,0,1-1.595,1.714,1.584,1.584,0,0,1-1.579-1.659,5.239,5.239,0,1,0-10.416.907c.312,2.51,1.94,3.87,4.513,4.253,4.048.6,8.09,1.123,10.565,7.9a5.892,5.892,0,0,1,.328,1.352,10.279,10.279,0,0,1-8.2,11.237C39.863,54.482,39.743,54.513,39.561,54.555Z" style="fill:#404041"/></g></g></svg>