<svg xmlns="http://www.w3.org/2000/svg" viewBox="0 0 83.425 72.168"><title>Asset 2</title><g id="Layer_2" data-name="Layer 2"><g id="Layer_1-2" data-name="Layer 1"><rect x="6.193" y="7.597" width="77.232" height="64.571" style="fill:#f5ac5f"/><path d="M0,68.369V0H82.3V62.039H79.764V12.661H3.8V65.837H54.442v2.532Zm3.8-58.24H79.764V3.8H3.8Z" style="fill:#404041"/><path d="M33.115,46.094,48.123,31.086l1.905,1.952c-4.969,4.97-10,10-14.981,14.981Z" style="fill:#404041"/><path d="M46.3,48.623a4.325,4.325,0,1,1,4.322-4.378A4.35,4.35,0,0,1,46.3,48.623Zm-.04-5.684A1.376,1.376,0,0,0,44.9,44.3a1.4,1.4,0,0,0,1.368,1.367,1.368,1.368,0,0,0,1.382-1.4A1.35,1.35,0,0,0,46.264,42.939Z" style="fill:#404041"/><path d="M36.842,30.506a4.332,4.332,0,1,1-4.361,4.29A4.366,4.366,0,0,1,36.842,30.506ZM36.824,36.2a1.366,1.366,0,0,0,1.386-1.336A1.4,1.4,0,0,0,36.8,33.469a1.377,1.377,0,0,0-1.344,1.383A1.339,1.339,0,0,0,36.824,36.2Z" style="fill:#404041"/><path d="M13.532,5.064h2.927v2.9c-.894,0-1.779.01-2.663-.013-.091,0-.25-.2-.253-.3C13.522,6.8,13.532,5.952,13.532,5.064Z" style="fill:#404041"/><rect x="20.258" y="5.064" width="2.532" height="2.532" style="fill:#404041"/><rect x="8.863" y="5.064" width="2.532" height="2.532" style="fill:#404041"/><path d="M54.4,50.135c6.593,6.594,10.981,10.981,17.5,17.5l-1.638,1.623L52.8,51.791a16.481,16.481,0,1,1-.5-25.252A15.979,15.979,0,0,1,58.361,37.9,16.142,16.142,0,0,1,54.4,50.135Zm1.713-10.786A14.146,14.146,0,1,0,41.974,53.487,14.166,14.166,0,0,0,56.115,39.349Z" style="fill:#404041;stroke:#5a595c;stroke-miterlimit:10;stroke-width:0.5px"/></g></g></svg>