<svg xmlns="http://www.w3.org/2000/svg" viewBox="0 0 41.314 44.387"><title>Asset 15</title><g id="Layer_2" data-name="Layer 2"><g id="Layer_1-2" data-name="Layer 1"><circle cx="26.615" cy="19.045" r="14.7" style="fill:#659bd2;opacity:0.9"/><path d="M16.181,29.626,14.8,31.149,7.525,39.206q-1.484,1.642-2.966,3.287a1.1,1.1,0,0,0,.352,1.8,1.116,1.116,0,0,0,1.322-.33q1.952-2.155,3.9-4.315l6.295-6.968q.731-.809,1.462-1.612A6.7,6.7,0,0,1,16.181,29.626Z" style="fill:#659bd2"/><circle cx="22.983" cy="15.3" r="14.7" style="fill:none;stroke:#231f20;stroke-miterlimit:10;stroke-width:1.20000004768372px"/><path d="M12.549,25.88,11.17,27.4,3.893,35.46Q2.41,37.1.926,38.747a1.1,1.1,0,0,0,.353,1.8A1.118,1.118,0,0,0,2.6,40.215q1.95-2.157,3.9-4.316l6.294-6.967q.732-.81,1.463-1.613A6.676,6.676,0,0,1,12.549,25.88Z" style="fill:none;stroke:#231f20;stroke-miterlimit:10;stroke-width:1.20000004768372px"/></g></g></svg>