<svg xmlns="http://www.w3.org/2000/svg" viewBox="0 0 52.155 42.594"><title>Asset 17</title><g id="Layer_2" data-name="Layer 2"><g id="Layer_1-2" data-name="Layer 1"><path d="M8.706,3.765H47.926a4.229,4.229,0,0,1,4.229,4.229v34.6a0,0,0,0,1,0,0H4.477a0,0,0,0,1,0,0V7.994A4.229,4.229,0,0,1,8.706,3.765Z" style="fill:#faaf5e;opacity:0.9"/><path d="M0,39.838V3.492A3.434,3.434,0,0,1,2.388.171,4.132,4.132,0,0,1,3.532.011Q23.9,0,44.269,0a3.446,3.446,0,0,1,3.479,2.932,3.747,3.747,0,0,1,.041.589q0,18.05,0,36.1v.218ZM46.729,7.565H1.064V38.794H46.729Zm0-1.069c.005-.053.01-.085.01-.116,0-1.012,0-2.023,0-3.035a2.136,2.136,0,0,0-.064-.47A2.393,2.393,0,0,0,44.281,1.05Q23.9,1.065,3.51,1.057c-.077,0-.153,0-.229,0A2.338,2.338,0,0,0,1.069,3.231c-.033,1.061-.012,2.125-.014,3.187a.327.327,0,0,0,.021.078Z" transform="translate(0 0)" style="fill:#231f20"/><path d="M14.105,32.589l5.862-7.378c.092.054.173.1.253.15q1.754,1.077,3.506,2.157a.276.276,0,0,0,.341,0q1.794-1.12,3.595-2.229l.171-.1,5.882,7.4Zm-.543-.995V21.272l5.512,3.384Zm20.663-.043-5.5-6.921,5.5-3.4Zm-.166-11.445q-4.986,3.078-9.965,6.167a.327.327,0,0,1-.4,0q-4.868-3-9.746-5.978a.657.657,0,0,1-.4-.715,7.617,7.617,0,0,0,.007-.883H27.616V18.7h6.622c0,.375-.01.724.005,1.073A.326.326,0,0,1,34.059,20.106Z" transform="translate(0 0)" style="fill:#f7f7f8"/><path d="M4.668,4.8a1.006,1.006,0,1,1,.008-2.012A1.006,1.006,0,1,1,4.668,4.8Z" transform="translate(0 0)" style="fill:#231f20"/><path d="M7.672,4.8A1.006,1.006,0,1,1,7.7,2.789,1.006,1.006,0,1,1,7.672,4.8Z" transform="translate(0 0)" style="fill:#231f20"/><path d="M10.7,4.8a1.007,1.007,0,0,1,0-2.013,1.007,1.007,0,1,1,0,2.013Z" transform="translate(0 0)" style="fill:#231f20"/><polygon points="40.134 12.983 34.969 9.358 34.969 11.92 28.316 11.92 28.316 14.045 34.969 14.045 34.969 16.607 40.134 12.983" style="fill:#f7f7f8"/></g></g></svg>