<svg xmlns="http://www.w3.org/2000/svg" viewBox="0 0 52.286 43.902"><title>Asset 6</title><g id="Layer_2" data-name="Layer 2"><g id="Layer_1-2" data-name="Layer 1"><g id="TUenoq" style="opacity:0.7000000000000001"><path d="M9.385,27.738a6.226,6.226,0,0,1-7.236-3.359C.835,21.26,1.893,17.794,4.91,16.491a5.008,5.008,0,0,0,2.9-3.3A20.59,20.59,0,0,1,46.681,14.5a2.013,2.013,0,0,0,1.419,1.53,5.885,5.885,0,0,1,4.176,6.04c-.16,2.892-2.037,4.99-5.127,5.855a2.058,2.058,0,0,0-1.19.957A20.976,20.976,0,0,1,34.287,39.945a2.974,2.974,0,0,0-1.28,1.153c-.743,1.175-3.4,1.616-4.387.655a1.916,1.916,0,0,1,.711-3.011,21.225,21.225,0,0,1,2.38-.258,10.46,10.46,0,0,0,2.614-.411A18.919,18.919,0,0,0,45.891,18.7,18.98,18.98,0,0,0,8.265,17.62a18.909,18.909,0,0,0,.867,9.257C9.232,27.159,9.3,27.452,9.385,27.738Z" transform="translate(0 0)" style="fill:#00adee"/><path d="M27.028,4.917a15.723,15.723,0,1,1-.194,31.445,15.723,15.723,0,0,1,.194-31.445Zm13.38,15.728a13.424,13.424,0,0,0-26.847-.162,13.424,13.424,0,1,0,26.847.162Z" transform="translate(0 0)" style="fill:#00adee"/><path d="M18.563,23.973c5.709,4.463,11.328,4.08,16.946.008-.082,4.607-3.555,7.621-8.632,7.6C22.051,31.566,18.626,28.508,18.563,23.973Z" transform="translate(0 0)" style="fill:#f6921e"/></g><g id="TUenoq-2" data-name="TUenoq"><path d="M8.291,28.862A6.228,6.228,0,0,1,1.055,25.5C-.259,22.384.8,18.917,3.816,17.614a5.006,5.006,0,0,0,2.9-3.3,20.589,20.589,0,0,1,38.874,1.308,2.011,2.011,0,0,0,1.419,1.53,5.886,5.886,0,0,1,4.176,6.04c-.16,2.893-2.037,4.99-5.127,5.855a2.058,2.058,0,0,0-1.19.958A20.979,20.979,0,0,1,33.193,41.069a2.961,2.961,0,0,0-1.28,1.153c-.743,1.175-3.4,1.616-4.386.654a1.915,1.915,0,0,1,.711-3.011,21.207,21.207,0,0,1,2.379-.258,10.506,10.506,0,0,0,2.614-.41A18.92,18.92,0,0,0,44.8,19.829,18.98,18.98,0,0,0,7.171,18.743,18.913,18.913,0,0,0,8.039,28C8.138,28.283,8.208,28.575,8.291,28.862Z" transform="translate(0 0)" style="fill:none;stroke:#231f20;stroke-miterlimit:10"/><path d="M25.934,6.04a15.723,15.723,0,1,1-.194,31.446A15.723,15.723,0,0,1,25.934,6.04ZM39.315,21.769a13.425,13.425,0,0,0-26.848-.162,13.425,13.425,0,1,0,26.848.162Z" transform="translate(0 0)" style="fill:none;stroke:#231f20;stroke-miterlimit:10"/><path d="M17.469,25.1c5.709,4.463,11.329,4.079,16.946.008-.082,4.606-3.555,7.621-8.631,7.6C20.958,32.69,17.533,29.631,17.469,25.1Z" transform="translate(0 0)" style="fill:none;stroke:#231f20;stroke-miterlimit:10"/></g></g></g></svg>