<svg xmlns="http://www.w3.org/2000/svg" viewBox="0 0 39.018 47.059"><title>Asset 16</title><g id="Layer_2" data-name="Layer 2"><g id="Layer_1-2" data-name="Layer 1"><g style="opacity:0.9"><polygon points="20.332 8.716 0 8.716 0 47.059 35.428 47.059 35.428 17.643 20.332 17.643 20.332 8.716" style="fill:#e6e7e8"/></g><path d="M22.545,14.743a11.358,11.358,0,0,0,.886.722.127.127,0,0,1,.057.116c0,.058,0,.116,0,.174q0,12.708,0,25.415c0,.2.054.249.253.249q7.034-.009,14.067,0c.2,0,.238-.056.238-.245q-.009-6.169,0-12.338v-.251a1.784,1.784,0,0,0,.5.214.611.611,0,0,0,.288,0c.169-.057.188.018.188.164.025,4.418-.015,8.835-.026,13.252,0,.2-.1.165-.214.165H22.682q-9.676,0-19.353.005c-.189,0-.228-.045-.228-.23.011-13.07,0-26.14.026-39.211,0-.2.045-.25.249-.25q9.248.009,18.5.005h.244a10.814,10.814,0,0,0-.7.919.119.119,0,0,1-.117.051c-.052,0-.1,0-.155,0q-8.4,0-16.808,0c-.2,0-.239.05-.239.243q.007,18.633,0,37.267c0,.2.047.241.242.24q8.976-.007,17.953,0c.182,0,.233-.035.232-.227q-.007-13.106,0-26.211A.426.426,0,0,1,22.545,14.743Z" style="fill:#231f20"/><path d="M34.28,15.29a7.2,7.2,0,0,1,.8-.937c.043-.044.1-.032.146-.032,1.211,0,2.422,0,3.633,0,.117,0,.155.027.154.15,0,2.752,0,13.933,0,16.686a.173.173,0,0,1-.01.037c-.069,0-.073-.063-.1-.1-.256-.4-.508-.808-.767-1.209a.6.6,0,0,1-.1-.345c0-1.859,0-12.146.007-14,0-.187-.03-.25-.237-.248C36.645,15.3,35.486,15.29,34.28,15.29Z" style="fill:#231f20"/><path d="M31.247,19.628c0,.595,0,1.19,0,1.784,0,.136-.034.178-.171.171-.212-.012-.426-.008-.639,0-.117,0-.169-.016-.168-.154q.009-1.794,0-3.588c0-.113.035-.139.141-.136.233.007.466.008.7,0,.113,0,.138.033.137.14C31.244,18.439,31.247,19.034,31.247,19.628Z" style="fill:#231f20"/><path d="M35.129,19.628c0,.595,0,1.19,0,1.784,0,.136-.035.178-.171.171-.213-.012-.427-.008-.64,0-.116,0-.168-.016-.167-.154q.009-1.794,0-3.588c0-.113.036-.139.142-.136.232.007.465.008.7,0,.112,0,.138.033.137.14C35.127,18.439,35.129,19.034,35.129,19.628Z" style="fill:#231f20"/><path d="M11.855,25.438c0,.6,0,1.19,0,1.785,0,.119-.018.171-.154.164-.226-.013-.453-.008-.679,0-.1,0-.144-.017-.144-.134q.007-1.8,0-3.608c0-.116.04-.142.145-.138.22.006.44.01.66,0,.135-.007.174.031.172.169C11.851,24.261,11.855,24.85,11.855,25.438Z" style="fill:#231f20"/><path d="M15.74,25.451c0,.594,0,1.189,0,1.784,0,.117-.023.158-.147.151a6.3,6.3,0,0,0-.659,0c-.134.007-.172-.028-.171-.167.006-1.1,0-2.2,0-3.3,0-.416,0-.421.424-.414.179,0,.416-.082.518.038.088.1.028.333.029.507C15.741,24.52,15.74,24.985,15.74,25.451Z" style="fill:#231f20"/><path d="M30.276,25.46c0-.6,0-1.19,0-1.785,0-.136.035-.179.171-.171.22.011.44.007.66,0,.1,0,.147.016.147.134q-.008,1.815,0,3.629c0,.1-.03.119-.121.117-.239-.005-.479-.008-.718,0-.112,0-.138-.034-.137-.141C30.278,26.65,30.276,26.055,30.276,25.46Z" style="fill:#231f20"/><path d="M7,37.061c0-.589,0-1.177,0-1.766,0-.131.028-.184.17-.176.219.012.439.007.659,0,.1,0,.148.015.148.134q-.008,1.814,0,3.628c0,.112-.045.124-.136.122-.226,0-.453-.009-.679,0-.127.006-.163-.031-.162-.16C7.008,38.25,7,37.655,7,37.061Z" style="fill:#231f20"/><path d="M10.884,37.04c0-.589,0-1.178,0-1.767,0-.116.025-.159.149-.154.232.01.466.009.7,0,.106,0,.128.035.127.133q0,1.815,0,3.631c0,.116-.05.121-.137.12-.227,0-.454-.009-.68,0-.127.006-.161-.032-.16-.159C10.888,38.244,10.884,37.642,10.884,37.04Z" style="fill:#231f20"/><path d="M15.74,37.07c0,.595,0,1.191,0,1.786,0,.122-.033.154-.152.149-.226-.009-.453-.007-.679,0-.1,0-.147-.011-.147-.132q.007-1.8,0-3.611c0-.106.024-.147.138-.143.226.009.454.011.679,0,.133-.006.161.042.159.165C15.736,35.879,15.74,36.475,15.74,37.07Z" style="fill:#231f20"/><path d="M27.365,37.061c0,.595,0,1.19,0,1.785,0,.125-.03.166-.159.16-.225-.011-.452-.006-.679,0-.09,0-.139-.009-.139-.122q.006-1.815,0-3.629c0-.1.029-.136.132-.133.233.006.466.01.7,0,.13-.007.146.046.145.157C27.363,35.871,27.365,36.466,27.365,37.061Z" style="fill:#231f20"/><path d="M31.247,37.074c0,.583,0,1.166,0,1.749,0,.136-.018.2-.174.184a6.054,6.054,0,0,0-.66,0c-.105,0-.143-.021-.143-.136q.006-1.806,0-3.613c0-.115.04-.139.145-.136.22.007.44.01.66,0,.135-.007.174.029.172.168C31.242,35.883,31.247,36.479,31.247,37.074Z" style="fill:#231f20"/><path d="M34.159,37.059c0-.595,0-1.19,0-1.785,0-.113.02-.162.147-.155.226.011.453.007.679,0,.1,0,.151.013.15.134q-.006,1.815,0,3.63c0,.092-.027.123-.121.12-.239,0-.479-.008-.718,0-.113,0-.137-.034-.137-.141C34.161,38.262,34.159,37.661,34.159,37.059Z" style="fill:#231f20"/><path d="M11.855,8.031c0,.595,0,1.191,0,1.786,0,.116-.026.158-.149.152-.226-.011-.453-.007-.679,0-.1,0-.149-.016-.148-.135q.006-1.815,0-3.63c0-.1.03-.119.121-.117.239,0,.479.008.718,0,.113,0,.138.034.137.141C11.853,6.828,11.855,7.429,11.855,8.031Z" style="fill:#231f20"/><path d="M14.768,8.032c0-.595,0-1.19,0-1.785,0-.121.021-.17.155-.163.226.012.453.009.679,0,.106,0,.143.023.142.137q-.006,1.794,0,3.59c0,.135-.048.161-.168.156-.219-.008-.44-.009-.659,0-.123.006-.151-.035-.15-.152C14.771,9.222,14.768,8.627,14.768,8.032Z" style="fill:#231f20"/><path d="M10.884,19.644c0-.6,0-1.192,0-1.787,0-.114.018-.161.145-.154a5.483,5.483,0,0,0,.641,0c.147-.008.193.029.192.186-.008,1.055,0,2.111,0,3.167,0,.129-.007.259,0,.388s-.038.141-.144.138c-.22-.007-.441-.01-.66,0-.136.007-.175-.034-.173-.171C10.889,20.822,10.884,20.233,10.884,19.644Z" style="fill:#231f20"/><path d="M7,8.031c0-.59.006-1.179,0-1.769,0-.15.041-.186.183-.178.22.013.441.007.661,0,.095,0,.134.016.134.124q-.006,1.808,0,3.614c0,.107-.024.149-.139.145a6.054,6.054,0,0,0-.66,0C7.02,9.98,7,9.915,7,9.779,7.008,9.2,7,8.613,7,8.031Z" style="fill:#231f20"/><path d="M18.648,37.058c0-.595,0-1.189,0-1.784,0-.114.021-.161.147-.155.226.011.453.007.679,0,.1,0,.149.02.149.137q-.006,1.814,0,3.627c0,.094-.03.122-.122.12-.239,0-.479-.008-.717,0-.117,0-.136-.039-.135-.143C18.65,38.26,18.648,37.659,18.648,37.058Z" style="fill:#231f20"/><path d="M18.648,8c0-.583,0-1.166,0-1.748,0-.122.023-.17.156-.163.233.012.466.007.7,0,.095,0,.12.03.12.122q0,1.815,0,3.632c0,.109-.046.13-.14.127-.207,0-.415-.012-.621,0-.165.011-.221-.027-.217-.208C18.656,9.173,18.648,8.584,18.648,8Z" style="fill:#231f20"/><path d="M7.975,13.842c0,.589,0,1.177,0,1.766,0,.123-.026.167-.157.161-.232-.012-.466-.007-.7,0-.093,0-.121-.028-.121-.121q0-1.814,0-3.628c0-.111.049-.127.14-.125.226,0,.453.01.679,0,.137-.007.158.048.157.167C7.972,12.652,7.975,13.247,7.975,13.842Z" style="fill:#231f20"/><path d="M10.884,13.821c0-.589,0-1.178,0-1.767,0-.129.034-.168.161-.163.227.01.454.007.68,0,.1,0,.136.018.136.126q-.006,1.815,0,3.632c0,.094-.028.12-.12.118-.239-.006-.479-.009-.718,0-.113,0-.138-.034-.137-.141C10.887,15.025,10.884,14.423,10.884,13.821Z" style="fill:#231f20"/><path d="M15.74,13.841c0,.589,0,1.178,0,1.767,0,.125-.03.166-.159.161-.232-.011-.466-.008-.7,0-.093,0-.119-.027-.119-.12q0-1.815,0-3.63c0-.109.041-.128.136-.126.227.006.454.009.68,0,.128-.005.162.037.161.164C15.736,12.65,15.74,13.246,15.74,13.841Z" style="fill:#231f20"/><path d="M34.159,25.44c0-.589,0-1.179,0-1.768,0-.14.042-.175.175-.168.219.011.44.008.66,0,.112,0,.142.034.142.144q0,1.806,0,3.614c0,.089-.02.125-.117.122-.24-.006-.48-.011-.719,0-.136.007-.14-.056-.139-.159C34.161,26.632,34.159,26.036,34.159,25.44Z" style="fill:#231f20"/><path d="M19.619,13.842c0,.589,0,1.177,0,1.765,0,.127-.032.168-.16.161-.226-.01-.453-.005-.679,0-.089,0-.137-.007-.137-.121q.007-1.814,0-3.627c0-.108.041-.129.137-.127.226.005.453.009.678,0,.132-.005.162.043.16.167C19.615,12.653,19.619,13.248,19.619,13.842Z" style="fill:#231f20"/><path d="M27.365,25.456c0,.589,0,1.178,0,1.767,0,.12-.02.171-.155.164-.233-.013-.466-.007-.7,0-.091,0-.122-.023-.122-.118q0-1.816,0-3.633c0-.108.042-.131.138-.129.226.005.453.01.679,0,.134-.006.16.043.159.165C27.362,24.264,27.365,24.86,27.365,25.456Z" style="fill:#231f20"/><path d="M18.648,25.456c0-.6,0-1.191,0-1.787,0-.122.024-.173.159-.166.219.012.44.009.66,0,.115,0,.158.027.157.151q-.006,1.8,0,3.591c0,.113-.034.143-.142.14-.233-.008-.467-.009-.7,0-.118,0-.135-.04-.134-.144C18.65,26.646,18.648,26.051,18.648,25.456Z" style="fill:#231f20"/><path d="M7.975,19.664c0,.582,0,1.164,0,1.746,0,.135-.033.18-.171.173-.219-.011-.44-.007-.659,0-.107,0-.147-.027-.146-.141q0-1.806,0-3.61c0-.108.039-.129.134-.126.233.005.467.01.7,0,.131-.007.143.047.142.156C7.973,18.461,7.975,19.062,7.975,19.664Z" style="fill:#231f20"/><path d="M7.975,25.44c0,.6,0,1.191,0,1.787,0,.127-.031.165-.159.159-.226-.01-.453-.006-.679,0-.092,0-.139-.01-.138-.123q.006-1.815,0-3.632c0-.091.028-.126.121-.125.246.005.493.007.738,0,.125,0,.114.07.114.149Q7.974,24.547,7.975,25.44Z" style="fill:#231f20"/><path d="M15.74,19.63c0,.6,0,1.191,0,1.787,0,.124-.027.172-.159.166-.226-.01-.453-.007-.679,0-.1,0-.138-.016-.138-.125q.006-1.817,0-3.632c0-.091.022-.124.118-.121.233.007.466.01.7,0,.127,0,.161.032.16.16C15.736,18.452,15.74,19.041,15.74,19.63Z" style="fill:#231f20"/><path d="M27.365,19.631c0,.589,0,1.178,0,1.766,0,.139-.022.2-.177.187a6.21,6.21,0,0,0-.64,0c-.11,0-.161-.017-.16-.147q.008-1.8,0-3.591c0-.11.031-.144.141-.14.232.008.466.008.7,0,.114,0,.138.034.137.141C27.362,18.44,27.365,19.036,27.365,19.631Z" style="fill:#231f20"/><path d="M18.648,19.631c0-.589,0-1.177,0-1.766,0-.122.025-.168.157-.162.232.012.465.007.7,0,.093,0,.121.028.12.121q0,1.813,0,3.628c0,.089-.024.129-.12.127-.245,0-.491-.007-.737,0-.141,0-.115-.086-.115-.167Z" style="fill:#231f20"/><path d="M7,31.251c0-.589,0-1.179,0-1.768,0-.125.029-.169.159-.163.227.011.454.007.68,0,.091,0,.138.008.138.121q-.006,1.816,0,3.634c0,.1-.036.117-.124.116-.233,0-.467-.008-.7,0C7.033,33.2,7,33.157,7,33.039,7.007,32.443,7,31.847,7,31.251Z" style="fill:#231f20"/><path d="M11.855,31.249c0,.6,0,1.191,0,1.786,0,.127-.032.165-.159.159-.226-.011-.453-.005-.68,0-.089,0-.138-.008-.138-.123q.007-1.815,0-3.63c0-.1.031-.119.122-.117.239.005.479.008.718,0,.114-.005.136.037.136.142C11.853,30.058,11.855,30.654,11.855,31.249Z" style="fill:#231f20"/><path d="M14.768,31.263c0-.6,0-1.19,0-1.785,0-.13.037-.163.161-.157.226.009.453.006.679,0,.091,0,.138.009.137.122q-.006,1.815,0,3.629c0,.1-.034.121-.124.119-.239,0-.479-.008-.718,0-.118,0-.134-.044-.134-.145C14.77,32.454,14.768,31.858,14.768,31.263Z" style="fill:#231f20"/><path d="M18.648,31.242c0-.59,0-1.179,0-1.768,0-.113.018-.16.146-.154.232.012.466.008.7,0,.1,0,.131.03.131.132q-.006,1.8,0,3.593c0,.108-.026.151-.141.147-.232-.007-.466-.008-.7,0-.117,0-.136-.044-.135-.146C18.65,32.446,18.648,31.844,18.648,31.242Z" style="fill:#231f20"/><path d="M26.394,31.252c0-.582.007-1.164,0-1.746,0-.16.049-.193.194-.186.213.012.427.008.64,0,.1,0,.144.019.144.135q-.007,1.8,0,3.607c0,.1-.028.133-.13.13-.232-.007-.466-.009-.7,0-.125,0-.148-.045-.147-.158C26.4,32.441,26.394,31.847,26.394,31.252Z" style="fill:#231f20"/><path d="M30.276,31.246c0-.589,0-1.179,0-1.768,0-.128.035-.163.161-.157.226.01.453.006.679,0,.091,0,.138.007.138.12q-.008,1.816,0,3.632c0,.094-.026.121-.12.119-.239-.006-.479-.008-.718,0-.114,0-.138-.036-.138-.143C30.278,32.45,30.276,31.848,30.276,31.246Z" style="fill:#231f20"/><path d="M34.159,31.263c0-.6,0-1.19,0-1.785,0-.128.036-.163.161-.158.226.011.453.006.679,0,.091,0,.138.009.137.122q-.006,1.814,0,3.628c0,.1-.034.122-.124.12-.239,0-.479-.008-.718,0-.118,0-.134-.045-.133-.146C34.161,32.453,34.159,31.858,34.159,31.263Z" style="fill:#231f20"/><path d="M37.143,8.5A8.5,8.5,0,1,1,28.652,0,8.5,8.5,0,0,1,37.143,8.5ZM27.323,10c-.051-.048-.081-.075-.109-.1q-1-.995-1.991-1.99a.838.838,0,0,0-1.275.085.824.824,0,0,0,.1,1.108q1.324,1.329,2.654,2.655a.84.84,0,0,0,1.213,0l4.139-4.139q.585-.585,1.17-1.169a.833.833,0,0,0,.279-.66.84.84,0,0,0-1.443-.544q-2.319,2.318-4.636,4.636C27.392,9.912,27.363,9.953,27.323,10Z" style="fill:#659bd2"/></g></g></svg>