<?xml version="1.0" encoding="UTF-8"?>
<svg width="11px" height="10px" viewBox="0 0 11 10" version="1.1" xmlns="http://www.w3.org/2000/svg" xmlns:xlink="http://www.w3.org/1999/xlink">
    <!-- Generator: Sketch 50.2 (55047) - http://www.bohemiancoding.com/sketch -->
    <title>Shape</title>
    <desc>Created with Sketch.</desc>
    <defs></defs>
    <g id="Page-1" stroke="none" stroke-width="1" fill="none" fill-rule="evenodd">
        <g id="Asset-3" transform="translate(-1.000000, -1.000000)" fill="#FAAF5F" fill-rule="nonzero">
            <path d="M6.49691704,1 C6.56782511,1.20792659 6.63051196,1.39047247 6.69217115,1.57399453 L7.6992713,4.56891839 C7.7345945,4.74121922 7.90435022,4.85810643 8.08772422,4.83639203 L11.9928064,4.83639203 L12,4.85591566 L11.4604821,5.22393596 L8.79474963,7.06794221 C8.72861335,7.10012723 8.67897517,7.15633338 8.657108,7.22379612 C8.63524083,7.29125887 8.64300051,7.36425274 8.67862481,7.4262007 C9.07392875,8.57288819 9.47026034,9.71990108 9.86761958,10.8672394 C9.87892377,10.9014057 9.8892003,10.9365482 9.90872571,11 C9.84706652,10.9590004 9.80596039,10.9345959 9.77410314,10.9092152 L6.72300075,8.8006638 C6.66329402,8.74141066 6.5806951,8.70790081 6.49434791,8.70790081 C6.40800071,8.70790081 6.32540179,8.74141066 6.26569507,8.8006638 L3.15807175,10.9482624 L3.08921898,10.9931667 C3.10155082,10.9424053 3.10668909,10.9121437 3.11696562,10.8818821 C3.51089935,9.7345438 3.90483308,8.58688012 4.29876682,7.43889106 C4.37275785,7.22315502 4.34809417,7.1460367 4.15592302,7.01229988 L1.07296338,4.87934401 C1.04246336,4.86041637 1.01739134,4.83458749 1,4.80417806 L1.10276532,4.80417806 C2.36164051,4.80417806 3.62154335,4.80417806 4.88041854,4.80417806 C5.06475096,4.83190033 5.23847508,4.71421301 5.27092676,4.53963296 C5.66040732,3.39359625 6.05913677,2.25048809 6.45581091,1.10737993 C6.46608744,1.08102304 6.47636398,1.05368996 6.49691704,1 Z" id="Shape"></path>
        </g>
    </g>
</svg>