<svg xmlns="http://www.w3.org/2000/svg" viewBox="0 0 24.771 32.033"><title>Asset 12</title><g id="Layer_2" data-name="Layer 2"><g id="Layer_1-2" data-name="Layer 1"><path d="M12.511,17.3Q7.38,20.664,2.24,24.018A1.171,1.171,0,0,1,.4,23.294,1.186,1.186,0,0,1,.98,22.045q1.856-1.206,3.714-2.409L9.27,16.667l.156-.1" style="fill:#659bd2;stroke:#659bd2;stroke-miterlimit:10;stroke-width:0.75px"/><path d="M17.145,18.056a6.438,6.438,0,0,0-1.426-1.076c-.429.278-.865.544-1.284.837-.318.223-.663.447-.994.686a4.485,4.485,0,0,1,.515.152,4.425,4.425,0,0,1,2.729,5.039,4.38,4.38,0,0,1-4.894,3.533A4.364,4.364,0,0,1,8.2,24.514,1.152,1.152,0,0,0,8,24.22a1.12,1.12,0,0,0-1.5-.136A1.16,1.16,0,0,0,6.1,25.536a6.59,6.59,0,0,0,4.838,3.891c.137.028.165.084.162.208-.007.3,0,.6,0,.9a1.156,1.156,0,0,0,2.311-.011c0-.294.005-.588,0-.882,0-.132.026-.192.173-.222A6.676,6.676,0,0,0,17.017,27.6a6.825,6.825,0,0,0,.128-9.544Z" style="fill:#659bd2;stroke:#659bd2;stroke-miterlimit:10;stroke-width:0.75px"/><path d="M9.426,16.564c3.4-2.233,9.671-6.3,13.078-8.523a1.178,1.178,0,0,1,1.841.587,1.092,1.092,0,0,1-.474,1.257q-2.283,1.491-4.57,2.978c-1.284.835-5.506,3.6-6.79,4.435" style="fill:#659bd2;stroke:#659bd2;stroke-miterlimit:10;stroke-width:0.75px"/><path d="M11.3,13.549a4.449,4.449,0,0,1,.952-8.77,4.511,4.511,0,0,1,4.209,2.7,1.139,1.139,0,0,0,2.112-.853c-.056-.143-.117-.284-.186-.421a6.653,6.653,0,0,0-4.677-3.585c-.166-.039-.2-.1-.2-.25.008-.281,0-.561,0-.841a1.106,1.106,0,0,0-.471-.917,1.083,1.083,0,0,0-1.206-.1A1.122,1.122,0,0,0,11.2,1.566c0,.218,0,.434,0,.652,0,.358,0,.358-.35.436A6.746,6.746,0,0,0,5.627,9.868,6.67,6.67,0,0,0,8.13,14.5a9.241,9.241,0,0,0,.914.635C9.786,14.594,10.544,14.074,11.3,13.549Z" style="fill:#659bd2;stroke:#659bd2;stroke-miterlimit:10;stroke-width:0.75px"/></g></g></svg>