<svg xmlns="http://www.w3.org/2000/svg" viewBox="0 0 37.551 22.284"><title>Asset 11</title><g id="Layer_2" data-name="Layer 2"><g id="Layer_1-2" data-name="Layer 1"><path d="M19.264,0H9.378V.264c0,1.286-.006,2.572,0,3.857A1.17,1.17,0,0,1,8.038,5.27a1.145,1.145,0,0,1-1-1.2c0-1.272,0-2.544,0-3.815V.006H0V6.441A4.732,4.732,0,0,1,4.692,11.05,4.747,4.747,0,0,1,0,15.858v6.426H7.041V19.192c0-.35-.005-.7,0-1.05a1.169,1.169,0,1,1,2.337.061c0,1.272,0,2.544,0,3.816v.257H37.551V15.86a4.746,4.746,0,0,1-4.68-4.424,4.5,4.5,0,0,1,.83-2.949A4.677,4.677,0,0,1,37.55,6.442V0H35.721" style="fill:#659bd2"/><path d="M7.373,12.394c0,.882,0,1.764,0,2.646a1.257,1.257,0,0,1-1.206,1.287,1.261,1.261,0,0,1-1.343-.941,1.716,1.716,0,0,1-.048-.423q-.006-2.6,0-5.2a1.288,1.288,0,0,1,1.27-1.3,1.273,1.273,0,0,1,1.33,1.286C7.38,10.631,7.373,11.512,7.373,12.394Z" style="fill:#659bd2"/></g></g></svg>