<svg xmlns="http://www.w3.org/2000/svg" viewBox="0 0 24.221 27.112"><title>Asset 9</title><g id="Layer_2" data-name="Layer 2"><g id="Layer_1-2" data-name="Layer 1"><path d="M12.1,27.112H.5c-.293,0-.454-.115-.494-.352A.987.987,0,0,1,0,26.606c0-1.638,0-3.277,0-4.915A5.023,5.023,0,0,1,1.4,18.2a6.306,6.306,0,0,1,3.623-1.951A7.982,7.982,0,0,1,6.4,16.126c3.81-.009,7.621,0,11.432-.006a6.769,6.769,0,0,1,4.226,1.372,5.288,5.288,0,0,1,2.079,3.272,4.692,4.692,0,0,1,.077.878c.007,1.662,0,3.324,0,4.986,0,.339-.146.484-.489.484Z" transform="translate(0)" style="fill:#659bd2"/><path d="M12.109,13.754a6.877,6.877,0,1,1,6.885-6.779A6.882,6.882,0,0,1,12.109,13.754Z" transform="translate(0)" style="fill:#659bd2"/></g></g></svg>