<svg xmlns="http://www.w3.org/2000/svg" viewBox="0 0 34.641 31.104"><title>Asset 10</title><g id="Layer_2" data-name="Layer 2"><g id="Layer_1-2" data-name="Layer 1"><path d="M25.594,0a16.952,16.952,0,0,0-4.928.658A8.889,8.889,0,0,0,17.331,2.4a2.35,2.35,0,0,0-.378,3.489,4.619,4.619,0,0,0,1.379,1.121,13.473,13.473,0,0,0,6.02,1.618,17.637,17.637,0,0,0,3.512-.138,13.1,13.1,0,0,0,3.974-1.149A6.247,6.247,0,0,0,34.067,5.68a2.15,2.15,0,0,0,0-2.923,5.453,5.453,0,0,0-2.416-1.69A18.177,18.177,0,0,0,25.594,0ZM9.276,13a16.94,16.94,0,0,0-4.927.658A8.886,8.886,0,0,0,1.013,15.4a2.35,2.35,0,0,0-.378,3.489,4.611,4.611,0,0,0,1.38,1.121,13.465,13.465,0,0,0,6.019,1.618,17.637,17.637,0,0,0,3.512-.138,13.1,13.1,0,0,0,3.974-1.149,6.247,6.247,0,0,0,2.229-1.656,2.15,2.15,0,0,0,0-2.923,5.451,5.451,0,0,0-2.415-1.69A18.187,18.187,0,0,0,9.276,13ZM.024,21.064c0,.471.028.9-.007,1.331a1.4,1.4,0,0,0,.374,1.076,7.276,7.276,0,0,0,.516.551,7.448,7.448,0,0,0,2.321,1.4,14.473,14.473,0,0,0,4.91,1.029,17.213,17.213,0,0,0,4.939-.432,10.78,10.78,0,0,0,3.752-1.639,3.183,3.183,0,0,0,1.452-3.433c-.015.011-.05.033-.081.058a9.5,9.5,0,0,1-2,1.209,16.5,16.5,0,0,1-6.263,1.4,19.123,19.123,0,0,1-5.267-.478A12.725,12.725,0,0,1,.365,21.306C.261,21.234.158,21.159.024,21.064ZM34.535,7.914c-.057.038-.083.054-.107.072a10.2,10.2,0,0,1-2.207,1.242,16.932,16.932,0,0,1-5.929,1.229,19.13,19.13,0,0,1-5.406-.528,12.469,12.469,0,0,1-4.155-1.817c-.088-.062-.175-.125-.287-.206,0,.5.02.965-.007,1.429a1.247,1.247,0,0,0,.275.85,5.846,5.846,0,0,0,2.105,1.694,13.854,13.854,0,0,0,5.615,1.406,17.384,17.384,0,0,0,4.635-.328,11.465,11.465,0,0,0,3.754-1.447,4.963,4.963,0,0,0,1.535-1.439,1.054,1.054,0,0,0,.2-.654c-.017-.43,0-.861-.005-1.291C34.546,8.066,34.54,8.007,34.535,7.914ZM.06,25.909,0,25.927a11.912,11.912,0,0,0,.09,1.352,2.6,2.6,0,0,0,.872,1.4A7.011,7.011,0,0,0,2.944,29.97,13.9,13.9,0,0,0,8.789,31.1a19.538,19.538,0,0,0,3.791-.366,12.385,12.385,0,0,0,3.746-1.324,6.445,6.445,0,0,0,1.958-1.569.43.43,0,0,0,.1-.245c0-.351-.012-.7-.024-1.051-.009-.26-.025-.52-.038-.79-.278.194-.531.388-.8.557a14.94,14.94,0,0,1-7.106,2.1,19.717,19.717,0,0,1-4.321-.178,15.663,15.663,0,0,1-3.9-1.1A10.329,10.329,0,0,1,.06,25.909ZM34.545,12.745c-.318.208-.6.406-.894.581a15.063,15.063,0,0,1-6.619,1.914,20.2,20.2,0,0,1-3.425-.029,17.176,17.176,0,0,1-3.531-.687c-.349-.109-.693-.232-1.093-.367l.162.188a4.367,4.367,0,0,1,1.165,2.87c0,.113.059.132.136.157a15.938,15.938,0,0,0,4.264.747,18.474,18.474,0,0,0,2.889-.1,13.969,13.969,0,0,0,3.667-.9,7.188,7.188,0,0,0,2.769-1.8,1.664,1.664,0,0,0,.519-1.339A11.456,11.456,0,0,1,34.545,12.745Zm0,4.81c-.065.044-.1.067-.136.092a10.74,10.74,0,0,1-2.519,1.36,16.982,16.982,0,0,1-5.277,1.079,19.67,19.67,0,0,1-5.49-.453c-.265-.062-.528-.133-.807-.2,0,.848,0,1.672-.005,2.5a.253.253,0,0,0,.21.3,16.162,16.162,0,0,0,4.306.73,17.29,17.29,0,0,0,4.3-.362,11.319,11.319,0,0,0,3.761-1.483A4.679,4.679,0,0,0,34.4,19.64a.724.724,0,0,0,.14-.316C34.552,18.748,34.544,18.171,34.544,17.555Zm-.038,4.854a.349.349,0,0,0-.054.03,11.763,11.763,0,0,1-3.8,1.81,17.985,17.985,0,0,1-4.483.68,19.108,19.108,0,0,1-4.741-.413c-.367-.081-.733-.174-1.114-.265v.2c0,.7.006,1.4-.005,2.1a.243.243,0,0,0,.207.279,15.711,15.711,0,0,0,4.064.731,17.008,17.008,0,0,0,5.08-.473,10.123,10.123,0,0,0,3.563-1.613A2.91,2.91,0,0,0,34.506,22.409Z" style="fill:#659bd2"/></g></g></svg>