<svg xmlns="http://www.w3.org/2000/svg" viewBox="0 0 32.398 32.39"><title>Asset 13</title><g id="Layer_2" data-name="Layer 2"><g id="Layer_1-2" data-name="Layer 1"><path d="M16.184,32.39A16.2,16.2,0,1,1,32.4,16.427,16.207,16.207,0,0,1,16.184,32.39Z" style="fill:#659bd2"/><path d="M13.369,20.637a2,2,0,0,1,.127-.168l9.492-9.494a.446.446,0,0,1,.446-.166.394.394,0,0,1,.244.613.909.909,0,0,1-.117.138L13.7,21.421a.423.423,0,0,1-.681,0L8.829,17.232c-.19-.19-.226-.34-.129-.524a.405.405,0,0,1,.62-.136,1.123,1.123,0,0,1,.112.106q1.9,1.9,3.8,3.8C13.271,20.518,13.3,20.559,13.369,20.637Z" style="fill:#f5f9fc"/></g></g></svg>